<svg width="34" height="31" viewBox="0 0 34 31" fill="none" xmlns="http://www.w3.org/2000/svg">
<g opacity="0.7" filter="url(#filter0_b_1_689)">
<rect width="34" height="31" rx="4" fill="white"/>
<path d="M8 21V15.8173C8 15.5416 8.08333 15.2365 8.25 14.902C8.41667 14.5673 8.66667 14.3282 9 14.1845V11.8423C9 11.3231 9.17725 10.8863 9.53175 10.5318C9.88625 10.1773 10.3231 10 10.8423 10H15.573C15.9013 10 16.1853 10.0769 16.425 10.2307C16.6647 10.3846 16.8563 10.5903 17 10.848C17.1437 10.5903 17.3343 10.3846 17.572 10.2307C17.8098 10.0769 18.0929 10 18.4212 10H23.152C23.6712 10 24.109 10.1773 24.4655 10.5318C24.8218 10.8863 25 11.3231 25 11.8423V14.1845C25.3333 14.3282 25.5833 14.5673 25.75 14.902C25.9167 15.2365 26 15.5416 26 15.8173V21H25.2307V19H8.76925V21H8ZM17.3845 14.048H24.2307V11.8423C24.2307 11.5346 24.1247 11.2788 23.9125 11.075C23.7003 10.8712 23.4468 10.7693 23.152 10.7693H18.3845C18.1012 10.7693 17.8637 10.8763 17.672 11.0905C17.4803 11.3045 17.3845 11.5551 17.3845 11.8423V14.048ZM9.76925 14.048H16.6155V11.8423C16.6155 11.5551 16.5197 11.3045 16.328 11.0905C16.1363 10.8763 15.8988 10.7693 15.6155 10.7693H10.8423C10.5512 10.7693 10.2997 10.8753 10.0875 11.0875C9.87533 11.2997 9.76925 11.5513 9.76925 11.8423V14.048ZM8.76925 18.2308H25.2307V15.8173C25.2307 15.5468 25.1349 15.3125 24.9433 15.1145C24.7516 14.9163 24.5141 14.8173 24.2307 14.8173H9.76925C9.48592 14.8173 9.24842 14.9163 9.05675 15.1145C8.86508 15.3125 8.76925 15.5468 8.76925 15.8173V18.2308Z" fill="black"/>
</g>
<defs>
<filter id="filter0_b_1_689" x="-4" y="-4" width="42" height="39" filterUnits="userSpaceOnUse" color-interpolation-filters="sRGB">
<feFlood flood-opacity="0" result="BackgroundImageFix"/>
<feGaussianBlur in="BackgroundImageFix" stdDeviation="2"/>
<feComposite in2="SourceAlpha" operator="in" result="effect1_backgroundBlur_1_689"/>
<feBlend mode="normal" in="SourceGraphic" in2="effect1_backgroundBlur_1_689" result="shape"/>
</filter>
</defs>
</svg>
