<svg width="17" height="19" viewBox="0 0 17 19" fill="none" xmlns="http://www.w3.org/2000/svg">
<path d="M5.75 13.7533C5.10833 13.7533 4.56597 13.5318 4.12292 13.0887C3.67986 12.6457 3.45833 12.1033 3.45833 11.4616C3.45833 10.82 3.67986 10.2776 4.12292 9.83456C4.56597 9.3915 5.10833 9.16997 5.75 9.16997C6.39167 9.16997 6.93403 9.3915 7.37708 9.83456C7.82014 10.2776 8.04167 10.82 8.04167 11.4616C8.04167 12.1033 7.82014 12.6457 7.37708 13.0887C6.93403 13.5318 6.39167 13.7533 5.75 13.7533ZM2.08333 18.795C1.57917 18.795 1.14757 18.6155 0.788542 18.2564C0.429514 17.8974 0.25 17.4658 0.25 16.9616V4.12831C0.25 3.62414 0.429514 3.19254 0.788542 2.83351C1.14757 2.47449 1.57917 2.29497 2.08333 2.29497H3V0.461639H4.83333V2.29497H12.1667V0.461639H14V2.29497H14.9167C15.4208 2.29497 15.8524 2.47449 16.2115 2.83351C16.5705 3.19254 16.75 3.62414 16.75 4.12831V16.9616C16.75 17.4658 16.5705 17.8974 16.2115 18.2564C15.8524 18.6155 15.4208 18.795 14.9167 18.795H2.08333ZM2.08333 16.9616H14.9167V7.79497H2.08333V16.9616Z" fill="#BEB3A1"/>
</svg>
