<svg width="6" height="190" viewBox="0 0 6 190" fill="none" xmlns="http://www.w3.org/2000/svg">
<path d="M1.85045 189.651C1.96061 189.357 2.22048 188.954 2.42667 188.753C2.66959 188.515 2.73174 188.349 2.6018 188.278C2.30522 188.114 2.33629 187.137 2.6357 187.239C2.81083 187.3 2.86732 187.152 2.83907 186.693C2.81647 186.348 2.74303 185.981 2.67242 185.881C2.6018 185.782 2.66394 185.654 2.81083 185.603C2.9916 185.539 3.05374 185.338 3.00008 184.98C2.89274 184.268 2.63005 183.064 2.45492 182.5C2.34759 182.15 2.37301 182.048 2.56226 182.084C2.73739 182.117 2.80518 181.969 2.78258 181.591C2.76563 181.295 2.82495 181.052 2.91534 181.05C3.00573 181.05 3.07917 180.915 3.07917 180.751C3.07917 180.588 3.17238 180.366 3.28819 180.259C3.44919 180.113 3.44637 180.006 3.27689 179.825C3.13283 179.669 3.11871 179.549 3.23735 179.48C3.44919 179.36 3.29384 178.891 3.03962 178.891C2.94641 178.891 2.7967 179.059 2.70631 179.266L2.54249 179.641L2.52836 179.268C2.51989 179.064 2.59333 178.893 2.69219 178.893C2.79105 178.893 2.82212 178.781 2.76281 178.643C2.70349 178.508 2.55096 178.396 2.42385 178.396C2.06512 178.396 2.31651 177.535 2.70067 177.444C3.11024 177.344 3.23452 176.788 3.15261 175.44C3.11871 174.866 3.15826 174.358 3.243 174.31C3.53676 174.144 3.38988 173.911 2.99443 173.914C2.47469 173.916 2.70067 173.712 3.24582 173.682C3.53676 173.666 3.68364 173.541 3.72318 173.273C3.77968 172.896 3.7712 172.893 3.30796 173.171C2.78258 173.488 2.65547 173.329 3.15543 172.982C3.45767 172.77 3.45767 172.76 3.14131 172.758C2.83625 172.755 2.81648 172.625 2.91251 171.135C2.97466 170.149 2.95206 169.601 2.85037 169.731C2.73739 169.879 2.68372 169.79 2.68089 169.44C2.67807 169.024 2.73739 168.95 3.0142 169.026C3.27972 169.1 3.35033 169.032 3.34751 168.705C3.34751 168.475 3.25147 168.238 3.13566 168.174C2.98878 168.092 3.0029 168.021 3.18368 167.929C3.36728 167.835 3.42942 167.472 3.40683 166.627C3.38988 165.984 3.43507 165.492 3.51134 165.532C3.69494 165.632 3.9774 165.29 4.10169 164.82C4.16948 164.56 4.11863 164.448 3.92938 164.448C3.77968 164.448 3.70906 164.519 3.76838 164.603C3.8277 164.688 3.79098 164.805 3.68929 164.864C3.5876 164.922 3.50286 164.866 3.50286 164.744C3.50286 164.407 3.92938 163.621 4.11863 163.618C4.20902 163.618 4.05649 163.427 3.77685 163.197C3.47179 162.947 3.31361 162.679 3.37575 162.526C3.43507 162.386 3.56501 162.317 3.66669 162.373C3.78815 162.439 3.7938 162.34 3.68081 162.079C3.39835 161.423 3.26277 160.436 3.46897 160.548C3.57065 160.604 3.65539 160.778 3.65539 160.936C3.65539 161.092 3.82487 161.347 4.02825 161.502C4.38132 161.77 4.39827 161.768 4.39545 161.459C4.39545 161.219 4.31071 161.163 4.07344 161.247C3.88136 161.314 3.96045 161.183 4.26269 160.923C4.57058 160.66 4.69486 160.446 4.57905 160.382C4.47171 160.323 4.38415 160.063 4.38132 159.805C4.38132 159.54 4.25704 159.295 4.10169 159.241C3.94916 159.19 3.83052 159.014 3.83617 158.851C3.84464 158.593 3.86724 158.595 4.00847 158.886C4.16383 159.205 4.20902 159.162 4.25704 158.636C4.27116 158.496 4.42087 158.407 4.60165 158.435C4.83892 158.47 4.92366 158.368 4.92083 158.044C4.92083 157.769 4.83327 157.636 4.68921 157.682C4.5508 157.725 4.33048 157.45 4.13558 156.993C3.84464 156.311 3.82205 156.293 3.92091 156.811C4.02542 157.363 4.01695 157.376 3.74861 157.049C3.42942 156.663 3.44919 155.454 3.77685 155.352C3.88984 155.316 3.98023 155.104 3.98023 154.877C3.98023 154.645 4.05649 154.509 4.161 154.568C4.32766 154.66 4.42369 154.44 4.36155 154.111C4.35025 154.042 4.42087 153.986 4.51691 153.986C4.61859 153.986 4.64684 153.769 4.58187 153.488C4.49149 153.093 4.53103 152.991 4.7796 152.988C5.00557 152.988 5.05924 152.896 4.97167 152.656C4.90671 152.475 4.84739 152.029 4.83892 151.661C4.82479 151.031 4.71746 150.921 4.17795 150.987C4.05084 151.003 3.94916 150.941 3.94633 150.852C3.94633 150.569 4.28811 150.479 4.67509 150.663C5.04794 150.839 5.22589 150.615 4.86999 150.418C4.77395 150.365 4.7457 150.194 4.81067 150.035C4.91518 149.778 4.88976 149.775 4.5734 149.992C4.3785 150.125 4.11863 150.347 3.99435 150.482C3.67517 150.832 3.49721 150.594 3.54523 149.882C3.59608 149.104 3.64127 149.073 4.21185 149.405C4.5734 149.617 4.69768 149.63 4.75418 149.466C4.88976 149.063 4.7909 148.593 4.51973 148.351C4.28246 148.139 4.26552 148.154 4.38133 148.473C4.47736 148.741 4.43782 148.838 4.23162 148.841C4.04519 148.841 3.9887 148.749 4.06497 148.565C4.15253 148.353 4.10734 148.313 3.87289 148.394C3.63845 148.479 3.56501 148.407 3.56218 148.096C3.56218 147.807 3.68364 147.659 3.99153 147.588C4.36155 147.501 4.41805 147.396 4.38133 146.848C4.32766 146.09 4.50561 145.753 4.85586 145.942C5.06771 146.054 5.06771 146.033 4.85586 145.799C4.71746 145.646 4.65249 145.406 4.71181 145.263C4.77395 145.112 4.70051 144.964 4.53668 144.908C4.38133 144.854 4.29376 144.714 4.34461 144.594C4.39545 144.474 4.29376 144.344 4.12428 144.303C3.89549 144.249 3.92091 144.224 4.21467 144.209C4.71463 144.183 4.91518 143.92 4.53386 143.793C4.32766 143.724 4.26552 143.52 4.30789 143.068C4.34178 142.721 4.4237 142.358 4.48866 142.259C4.55363 142.159 4.5734 141.917 4.53103 141.718C4.48866 141.519 4.51973 141.396 4.60447 141.442C4.8022 141.552 4.97732 140.48 4.78242 140.368C4.44347 140.174 4.18643 138.43 4.47736 138.305C4.59035 138.257 4.49714 138.259 4.26834 138.313C3.83335 138.413 3.68364 138.15 4.09039 138.004C4.22032 137.958 4.42087 137.639 4.53386 137.297C4.70616 136.774 4.69204 136.634 4.44064 136.409C4.1723 136.169 4.16948 136.136 4.42652 136.09C4.59035 136.062 4.81067 135.717 4.93495 135.299C5.05641 134.893 5.22872 134.559 5.31911 134.559C5.40667 134.559 5.47729 134.408 5.47729 134.224C5.47729 133.972 5.27956 133.847 4.64684 133.696C4.0339 133.553 3.81922 133.42 3.8164 133.186C3.8164 132.958 3.90114 132.9 4.12146 132.974C4.29094 133.032 4.49996 132.981 4.58752 132.864C4.71181 132.698 4.74006 132.706 4.71746 132.9C4.70051 133.038 4.70051 133.242 4.71181 133.357C4.74006 133.617 5.58745 133.625 5.76257 133.367C5.83319 133.26 5.81907 133.216 5.72585 133.267C5.63547 133.318 5.45751 133.26 5.3304 133.137C5.18635 132.997 5.16658 132.877 5.28239 132.813C5.55638 132.657 5.49706 132.397 5.18635 132.4C5.00557 132.4 4.89823 132.218 4.87564 131.861C4.85587 131.565 4.82197 131.21 4.79655 131.072C4.77395 130.935 4.74288 130.613 4.73158 130.358C4.71746 130.103 4.64119 129.932 4.55645 129.977C4.47171 130.026 4.4237 129.898 4.44629 129.697C4.46889 129.495 4.49714 129.255 4.50843 129.163C4.51973 129.071 4.68356 129.163 4.87564 129.368C5.06771 129.572 5.25414 129.738 5.29086 129.738C5.32758 129.738 5.353 129.464 5.34735 129.133C5.33605 128.502 5.24849 128.421 4.13841 128.017C3.52546 127.795 3.51699 127.783 3.98305 127.767C4.25139 127.757 4.51691 127.844 4.57058 127.959C4.64119 128.109 4.72311 128.086 4.86434 127.882C4.97168 127.726 5.1807 127.637 5.32758 127.688C5.60439 127.783 5.60157 127.675 5.28239 125.863C5.17505 125.243 5.15245 125.225 4.5508 125.317C3.83335 125.427 3.70341 125.19 4.39263 125.029C4.77678 124.939 4.82479 124.868 4.66944 124.61C4.40957 124.179 4.97732 123.98 5.31628 124.383C5.54225 124.654 5.55638 124.646 5.52813 124.301C5.51118 124.097 5.40102 123.929 5.28239 123.929C4.94625 123.929 4.85304 123.337 5.12138 122.905C5.57332 122.186 5.59875 122.101 5.47164 121.81C5.36148 121.555 5.31911 121.553 5.12986 121.772C5.01122 121.91 4.72876 122.043 4.50279 122.066C4.12993 122.104 4.09039 122.038 4.09604 121.405C4.10169 120.772 4.12428 120.738 4.30789 121.078C4.51973 121.471 4.91236 121.494 4.90953 121.114C4.90953 120.994 5.03099 120.851 5.18352 120.795C5.48294 120.685 5.62982 119.447 5.3417 119.45C5.24849 119.45 5.17223 119.302 5.1694 119.118C5.1694 118.934 5.24849 118.786 5.35018 118.783C5.45186 118.783 5.53378 118.704 5.53378 118.607C5.53378 118.51 5.45186 118.477 5.35018 118.533C5.24567 118.592 5.21459 118.526 5.27674 118.378C5.33605 118.235 5.43774 118.12 5.50271 118.12C5.56767 118.12 5.61852 117.671 5.61287 117.122C5.60722 116.435 5.53378 116.127 5.3756 116.127C5.06489 116.127 5.07901 115.854 5.39255 115.744C5.77387 115.609 5.85861 114.858 5.5253 114.56C5.26261 114.325 5.26826 114.251 5.5931 113.761C5.83884 113.386 5.949 112.906 5.95183 112.201C5.95183 111.252 5.9264 111.186 5.53378 111.188C5.30216 111.188 5.15528 111.252 5.20612 111.323C5.25696 111.397 5.22307 111.499 5.12703 111.553C5.03382 111.607 4.89541 111.41 4.82197 111.119C4.71463 110.693 4.76548 110.532 5.07619 110.3C5.30498 110.129 5.37842 109.986 5.25414 109.95C5.10726 109.907 5.12138 109.815 5.29651 109.647C5.60722 109.348 5.68066 108.33 5.41232 108.041C5.26826 107.886 5.28239 107.827 5.46599 107.822C5.64959 107.817 5.63264 107.758 5.40385 107.602C5.16093 107.436 5.08466 107.11 5.06206 106.158C5.03099 104.815 5.08184 104.363 5.29369 104.05C5.37278 103.93 5.3417 103.845 5.2146 103.845C5.04794 103.845 5.04794 103.789 5.2146 103.605C5.33605 103.473 5.37842 103.21 5.31063 103.024C5.22872 102.799 5.28239 102.651 5.46316 102.587C5.72868 102.493 5.72585 102.373 5.45186 101.73C5.38407 101.571 5.31911 101.316 5.31063 101.163C5.29933 101.01 5.23154 100.831 5.15528 100.762C5.07901 100.693 5.01687 100.502 5.01405 100.333C5.01405 100.165 4.93496 100.03 4.84174 100.03C4.60447 100.03 4.40675 99.4223 4.3672 98.5801C4.33331 97.8655 4.3898 97.8145 5.13551 97.8629C5.3643 97.8783 5.5479 97.8221 5.5479 97.7404C5.5479 97.4648 5.30498 97.3704 5.06489 97.5541C4.88129 97.6919 4.79655 97.6281 4.69486 97.2734C4.61012 96.9773 4.63837 96.7885 4.77395 96.7476C5.06489 96.6583 5.03947 96.449 4.70051 96.1478C4.44347 95.9207 4.45477 95.8263 4.78808 95.2214C4.99427 94.8513 5.09596 94.5502 5.0197 94.5502C4.94061 94.5502 5.16658 94.3894 5.51966 94.1903C5.92923 93.9606 6.07046 93.8024 5.90946 93.7539C5.69761 93.69 5.69761 93.6543 5.90946 93.5191C6.07893 93.4119 6.01114 93.3991 5.70043 93.4808C4.72876 93.7334 4.44347 93.8866 4.33048 94.2158C4.26552 94.4047 4.12711 94.5578 4.0226 94.5578C3.91526 94.5578 3.88702 94.4328 3.95763 94.2669C4.14406 93.8381 4.25704 93.2077 4.24292 92.6717C4.23445 92.3144 4.29941 92.2225 4.51691 92.2966C4.67227 92.3502 4.92366 92.2812 5.07336 92.1434C5.31346 91.9214 5.31346 91.8933 5.05924 91.8959C4.71464 91.8959 4.41805 91.0358 4.73158 90.9388C4.84739 90.903 4.94343 90.6938 4.94061 90.4717C4.94061 90.2522 5.0197 90.071 5.12138 90.0685C5.22307 90.0685 5.30498 89.9128 5.30216 89.7239C5.30216 89.4508 5.22025 89.4049 4.90954 89.4942C4.55363 89.5989 4.52821 89.5606 4.61577 89.0501C4.79655 87.9884 5.0084 87.4933 5.28239 87.4933C5.43492 87.4933 5.5818 87.3223 5.61287 87.1181C5.64394 86.9088 5.5705 86.7455 5.44904 86.7455C5.28239 86.7455 5.28521 86.6842 5.45469 86.4979C5.62699 86.3065 5.62982 86.2478 5.46034 86.2478C5.21742 86.2478 5.28239 85.1427 5.58745 84.0401C5.68349 83.693 5.72303 83.1877 5.67501 82.9197C5.62134 82.6236 5.66654 82.4297 5.79082 82.4297C5.90381 82.4297 5.94335 82.3531 5.88121 82.2638C5.81907 82.1719 5.68349 82.0979 5.5818 82.1004C5.48011 82.1004 5.44622 82.1719 5.50553 82.2561C5.56485 82.3403 5.51966 82.4629 5.40667 82.5267C4.91801 82.8049 4.69486 81.5594 5.03947 80.4517C5.1694 80.028 5.1581 79.8468 4.98863 79.7498C4.85022 79.6707 4.83892 79.6197 4.96038 79.6171C5.15528 79.612 5.5818 78.9204 5.57897 78.6065C5.57897 78.5197 5.45469 78.4482 5.30216 78.4508C4.95191 78.4508 4.95191 78.1547 5.30216 77.3839C5.61005 76.705 5.53096 76.4575 5.01122 76.46C4.64967 76.46 4.46042 75.8858 4.51409 74.9364C4.53668 74.551 4.60165 74.4999 4.96885 74.5816C5.36995 74.6684 5.38125 74.6505 5.15245 74.3238C5.01687 74.1299 4.8022 73.9716 4.67509 73.9742C4.54798 73.9742 4.44347 73.8644 4.44065 73.7266C4.44065 73.5888 4.54233 73.4765 4.66944 73.474C4.79655 73.474 5.03664 73.2468 5.20612 72.9763C5.3756 72.7032 5.45469 72.4888 5.3869 72.499C4.9745 72.55 4.82197 72.4505 4.92931 72.1876C4.99428 72.0268 5.13268 71.8431 5.23719 71.7793C5.47446 71.6338 5.30499 71.4704 4.85587 71.4092C4.5734 71.3709 4.51974 71.2203 4.53668 70.5159C4.55081 69.809 4.49431 69.6533 4.1949 69.5665C3.99718 69.5104 3.87572 69.4261 3.92656 69.3802C4.08192 69.2373 5.14963 69.8753 5.15245 70.1127C5.15245 70.2352 5.23719 70.2888 5.33606 70.2326C5.66089 70.0489 5.52813 69.6507 5.14398 69.6533C4.8248 69.6533 4.78243 69.5716 4.84457 69.0331C4.88411 68.6911 4.83327 68.3185 4.72876 68.2036C4.62425 68.0888 4.60165 67.9969 4.67509 67.9969C4.75136 67.9969 4.71181 67.8872 4.58753 67.7544C4.29941 67.4431 4.48867 67.17 4.99992 67.1572C5.3756 67.1496 5.38125 67.1342 5.07619 66.9301C4.88129 66.7999 4.79655 66.6008 4.86152 66.4375C4.93496 66.2589 4.87564 66.1669 4.69204 66.1695C4.27117 66.172 4.16101 65.6514 4.43217 64.9266C4.64967 64.3447 4.63837 64.2553 4.31919 63.9695C3.84182 63.5433 4.05367 63.4029 4.64967 63.75C4.93213 63.9159 5.09031 64.1277 5.03382 64.2681C4.98015 64.3983 5.03382 64.5055 5.1581 64.5029C5.30216 64.5029 5.38125 64.2171 5.3756 63.6913C5.37278 63.1732 5.29651 62.9078 5.1694 62.9537C4.90389 63.0481 4.47454 62.576 4.62425 62.3539C4.68921 62.257 4.84739 62.1804 4.9745 62.1778C5.28239 62.1778 5.27391 61.7159 4.9632 61.6112C4.83045 61.5653 4.64402 61.6572 4.54798 61.8154C4.3898 62.0757 4.36438 62.0732 4.24857 61.7695C4.17796 61.5883 4 61.1952 3.8503 60.8966C3.68647 60.5674 3.6328 60.2101 3.71472 59.9855C3.78816 59.7813 3.8277 59.5159 3.79945 59.3908C3.77121 59.2683 3.83335 59.2122 3.93221 59.2683C4.0339 59.3245 4.16666 59.2938 4.23162 59.1994C4.42935 58.9033 4.92648 58.9952 4.79938 59.304C4.73441 59.4572 4.7909 59.6409 4.92083 59.715C5.24284 59.8962 5.43492 59.886 5.43209 59.6843C5.43209 59.5925 5.32758 59.5363 5.20047 59.5618C5.07337 59.5848 4.9971 59.4955 5.02817 59.3602C5.25697 58.3827 4.9971 57.8697 4.26834 57.8697C3.70907 57.8697 3.97458 58.4363 4.596 58.5741C4.92366 58.6456 4.91519 58.6558 4.53951 58.6762C4.30506 58.6889 3.96611 58.7706 3.78533 58.86C3.49439 59.0029 3.46332 58.9595 3.51982 58.4873C3.55371 58.1938 3.70059 57.8748 3.84465 57.7753C4.0339 57.6477 4.07344 57.3975 3.99435 56.882C3.90962 56.3358 3.94916 56.1316 4.16666 56.0219C4.39263 55.907 4.41523 55.7488 4.28529 55.2537C4.1949 54.9117 4.16101 54.5084 4.21185 54.3604C4.26552 54.1996 4.16948 54.0439 3.97741 53.9801C3.70059 53.8857 3.69494 53.8474 3.92374 53.7147C4.15818 53.5794 4.15536 53.559 3.90679 53.5564C3.70624 53.5564 3.61303 53.3803 3.59891 52.9745C3.58196 52.5177 3.64692 52.3926 3.90679 52.3926C4.15536 52.3926 4.21468 52.4794 4.13841 52.75C4.07062 52.9873 4.10452 53.069 4.24292 52.9924C4.40958 52.898 4.68357 52.0532 4.71746 51.53C4.72029 51.4687 4.78525 51.3615 4.86152 51.2952C5.10161 51.0731 5.00557 50.7209 4.67227 50.6086C3.98023 50.3764 3.8503 50.1161 4.15536 49.575C4.40958 49.1258 4.40958 49.0696 4.16101 49.0722C4.00565 49.0722 3.87854 48.9548 3.87854 48.8068C3.87854 48.6383 3.97741 48.5745 4.15253 48.6332C4.30506 48.6843 4.42935 48.6613 4.42652 48.5796C4.42652 48.4979 4.32201 48.3984 4.1949 48.3576C4.0113 48.2989 4.0113 48.2376 4.18643 48.0641C4.35591 47.8982 4.35873 47.791 4.1949 47.6149C4.02825 47.4362 4.03955 47.3494 4.24292 47.232C4.45477 47.1095 4.43782 47.0789 4.16101 47.0789C3.91809 47.0789 3.86725 47.0177 3.98588 46.8696C4.07909 46.7548 4.17231 46.0197 4.19208 45.2388C4.22598 43.8938 4.2062 43.807 3.80228 43.6411L3.37576 43.4675L3.86725 43.3476C4.35026 43.2302 4.74288 42.758 4.35308 42.7606C4.22033 42.7606 4.23162 42.6763 4.38133 42.5105C4.51409 42.3624 4.53104 42.2603 4.42088 42.2603C4.21468 42.2603 4.24857 40.9536 4.47454 40.2671C4.59883 39.8868 4.58188 39.8715 4.29377 40.0884C4.00848 40.3028 3.98306 40.2875 4.03672 39.9097C4.0678 39.68 4.22315 39.3125 4.37851 39.0905C4.63555 38.7255 4.63555 38.6489 4.36721 38.2687C4.18925 38.0185 3.94351 37.8756 3.75144 37.9114C3.40118 37.9777 3.30797 37.7021 3.62433 37.526C3.73166 37.4647 3.77403 37.3116 3.72037 37.184C3.66387 37.0564 3.69494 36.9517 3.78533 36.9517C3.98306 36.9517 3.96328 36.2779 3.75709 36.0304C3.55089 35.7828 3.6215 33.8023 3.83335 33.9171C3.92939 33.9707 3.94634 33.9248 3.87007 33.8151C3.79381 33.7053 3.83053 33.5062 3.95199 33.3735C4.11864 33.1898 4.12146 33.1311 3.95481 33.1311C3.83335 33.1311 3.78816 33.057 3.8503 32.9652C3.91244 32.8733 3.8277 32.7508 3.66105 32.6946C3.48027 32.6334 3.39271 32.47 3.44355 32.2914C3.49157 32.1255 3.43508 31.9596 3.31644 31.9213C3.16391 31.8703 3.16956 31.7911 3.33339 31.6304C3.51982 31.4491 3.56219 31.4619 3.56501 31.7018C3.56501 31.8626 3.64975 31.9468 3.74861 31.8907C3.85595 31.8294 3.88137 31.9034 3.81075 32.0744C3.72884 32.2684 3.75991 32.322 3.90679 32.2378C4.02543 32.1714 4.11864 31.9392 4.11864 31.7222C4.11864 31.5053 4.18926 31.2858 4.27682 31.2348C4.48302 31.1174 4.37568 29.7596 4.12711 29.3665C3.95481 29.096 3.92092 29.1088 3.74861 29.5248C3.51134 30.099 3.2543 30.1118 3.13284 29.5554C3.0594 29.2159 3.14696 29.0654 3.54524 28.8433C4.01695 28.5805 4.03673 28.5268 3.82205 28.0675C3.69494 27.7969 3.62998 27.4447 3.67235 27.2839C3.71754 27.1231 3.61585 26.8067 3.4492 26.5795C3.16956 26.1992 3.19781 26.0946 3.56784 26.1431C3.75991 26.1686 3.73731 25.5382 3.54524 25.431C3.4605 25.3851 3.38141 25.1197 3.37011 24.8415C3.35599 24.4484 3.42943 24.3361 3.70624 24.3361C3.90114 24.3361 4.06215 24.2595 4.05932 24.1677C4.05932 24.0758 3.91809 24.0018 3.74861 24.0043C3.47745 24.0043 3.4831 23.9737 3.79381 23.7593C4.07909 23.5602 4.09887 23.4837 3.89832 23.3637C3.72319 23.2616 3.70907 23.1825 3.8503 23.1008C4.06215 22.9809 4.12711 21.3449 3.92374 21.3475C3.85877 21.3475 3.71189 21.4649 3.59891 21.6104C3.41531 21.8375 3.38988 21.8273 3.38706 21.5287C3.38706 21.3398 3.4605 21.1841 3.55089 21.1841C3.6441 21.1841 3.6328 21.0897 3.52547 20.9774C3.31927 20.7554 3.30232 20.6967 3.29667 20.1913C3.29667 19.9897 3.16956 19.857 2.97184 19.8519C2.70067 19.8468 2.7148 19.8034 3.06223 19.5813C3.33622 19.4052 3.47462 19.1449 3.47745 18.7978C3.47745 18.5119 3.59891 17.9785 3.74014 17.6136C4.0678 16.7739 4.06497 16.6871 3.72884 16.8071C3.57913 16.8607 3.45485 17.0061 3.45485 17.1287C3.45485 17.2537 3.29667 17.4324 3.1046 17.5268C2.72044 17.7157 2.17247 17.6034 2.17247 17.3379C2.17247 17.2461 2.3024 17.2154 2.46058 17.2716C2.96901 17.4426 3.35599 16.8811 3.38988 15.9189C3.40683 15.4263 3.34187 14.8368 3.243 14.6096C3.082 14.237 3.10177 14.2038 3.43225 14.2957C3.6441 14.3544 3.79946 14.3238 3.79946 14.2217C3.79946 14.1247 3.71472 14.0456 3.61303 14.0456C3.49722 14.0456 3.4718 13.7802 3.54524 13.3412C3.6554 12.6929 3.63845 12.6546 3.35599 12.869C2.97184 13.16 2.73739 12.989 3.0481 12.6444C3.17804 12.4989 3.19781 12.3892 3.0933 12.3917C2.73739 12.3917 2.64983 11.8303 2.97466 11.6108C3.22605 11.4423 3.34751 11.4398 3.57066 11.6031C3.76556 11.7435 3.81075 11.746 3.72037 11.6133C3.50852 11.2968 3.43508 10.3985 3.61585 10.2964C3.80793 10.1866 3.61586 9.5358 3.35034 9.38268C3.11872 9.24996 3.35881 8.5379 3.59326 8.6655C3.73167 8.74207 3.71754 7.37662 3.57913 6.93254C3.56784 6.89936 3.4379 6.96317 3.2882 7.07803C3.06788 7.24648 2.99443 7.2337 2.8984 7.01421C2.83343 6.86619 2.88427 6.63393 3.00573 6.49612C3.19498 6.28683 3.15544 6.24855 2.76281 6.25111C2.47188 6.25111 2.26285 6.36341 2.21201 6.54462C2.14987 6.76411 2.12445 6.74368 2.10467 6.46294C2.09055 6.25876 2.16399 6.09032 2.26285 6.08776C2.36454 6.08776 2.43233 6.03162 2.41538 5.96271C2.33629 5.64879 2.6809 4.93416 2.87015 5.01838C2.98596 5.06942 2.93512 5.00562 2.75717 4.87546C2.36172 4.5845 2.34194 4.42883 2.70632 4.42627C2.8871 4.42627 2.97749 4.26803 2.96619 3.96942L2.95207 3.51257L2.77694 3.91582C2.53684 4.46966 2.19506 4.14042 2.15269 3.3186C2.1301 2.89749 2.22896 2.60144 2.44646 2.42278C2.62723 2.27476 2.7148 2.1012 2.63853 2.03484C2.42103 1.84087 2.42951 0.552002 2.64983 0.294227C2.80236 0.118126 2.79671 0.0415572 2.62441 -0.00948348C2.4973 -0.0477678 2.39279 -0.157517 2.39279 -0.251946C2.39279 -0.348931 2.24591 -0.525032 2.06795 -0.644989C1.76007 -0.854271 1.76007 -0.864472 2.07078 -0.872132C2.325 -0.877236 2.35889 -0.943596 2.22613 -1.16819C1.77984 -1.91344 2.0736 -3.16148 2.73739 -3.32227C3.01421 -3.38863 3.10177 -3.55196 3.09612 -3.99349C3.0933 -4.50394 3.05658 -4.54732 2.80518 -4.3559C2.56509 -4.1747 2.48883 -4.17725 2.35042 -4.37377C2.23743 -4.53456 2.27415 -4.67493 2.46623 -4.8051C2.62158 -4.91229 2.74304 -5.04246 2.73739 -5.09605C2.68655 -5.49675 2.74304 -5.55034 3.00856 -5.35382C3.25995 -5.16751 3.28537 -5.20325 3.20628 -5.62436C3.15544 -5.88979 3.09895 -6.14502 3.07917 -6.19096C3.0594 -6.23689 3.05093 -6.32877 3.06223 -6.39768C3.07353 -6.46659 2.96054 -6.52019 2.81366 -6.52019C2.64983 -6.52019 2.58486 -6.42065 2.65265 -6.27007C2.72045 -6.11183 2.65265 -6.01996 2.46623 -6.01996C2.11315 -6.01996 2.05666 -6.68353 2.38431 -6.98214C2.55379 -7.13783 2.53684 -7.18121 2.31087 -7.18121C2.14987 -7.18121 1.96909 -7.29096 1.90977 -7.42878C1.85046 -7.56405 1.88718 -7.67635 1.99169 -7.6789C2.0962 -7.6789 2.13292 -7.74525 2.07643 -7.82693C2.01994 -7.9086 2.10185 -8.02089 2.26003 -8.07704C2.41821 -8.13319 2.50012 -8.24549 2.44363 -8.32461C2.38714 -8.40628 2.46058 -8.56451 2.61028 -8.67681C2.75717 -8.78911 2.84473 -9.03923 2.80236 -9.23575C2.75999 -9.43227 2.71762 -9.75895 2.70915 -9.96568C2.69785 -10.1801 2.57639 -10.3383 2.41821 -10.3383C2.26568 -10.3383 2.1414 -10.4149 2.1414 -10.5119C2.1414 -10.6088 2.22613 -10.6395 2.33347 -10.5808C2.68373 -10.3893 3.05658 -10.8692 3.05375 -11.5047C3.05093 -11.9181 2.95207 -12.1631 2.75999 -12.2295C2.59051 -12.2882 2.52837 -12.4107 2.60746 -12.5307C2.85885 -12.9033 2.83343 -13.5107 2.56509 -13.6026C2.41821 -13.6511 2.29957 -13.9012 2.29675 -14.159C2.2911 -14.7154 2.4634 -15.1773 2.63571 -15.0829C2.73457 -15.0293 2.76846 -16.4458 2.6696 -16.6066C2.65548 -16.6295 2.65265 -16.6959 2.66113 -16.7546C2.6696 -16.8133 2.56509 -16.923 2.42951 -16.9996C2.25156 -17.0991 2.29675 -17.14 2.59051 -17.1425C2.95207 -17.1476 2.99444 -17.2318 2.97466 -17.8878C2.96054 -18.3395 2.87298 -18.6126 2.74587 -18.5922C2.63288 -18.5718 2.53967 -18.707 2.53684 -18.8882C2.53684 -19.1358 2.64136 -19.2098 2.96054 -19.1817C3.33904 -19.146 3.35599 -19.169 3.11025 -19.391C2.77976 -19.6845 2.25438 -19.7152 2.25721 -19.4421C2.25721 -19.3374 2.20636 -19.2966 2.13857 -19.3553C2.0736 -19.414 2.11597 -19.5697 2.23743 -19.6998C2.40409 -19.8862 2.40409 -19.9678 2.23178 -20.0623C2.06513 -20.1541 2.07925 -20.2307 2.2798 -20.3685C2.67808 -20.6391 2.81931 -21.3026 2.50012 -21.4098C2.35607 -21.4583 2.23743 -21.6114 2.23743 -21.7493C2.23743 -21.9279 2.37019 -21.9764 2.69502 -21.9228C3.16109 -21.8463 3.31644 -22.0224 2.95489 -22.2214C2.84473 -22.2801 2.80519 -22.4409 2.86168 -22.5787C2.92664 -22.737 2.83061 -22.8569 2.59899 -22.9105C2.39844 -22.9565 2.27698 -23.0611 2.33065 -23.1402C2.38431 -23.2193 2.29958 -23.2398 2.14422 -23.1862C1.83069 -23.0764 1.74595 -23.3699 2.04253 -23.5384C2.14422 -23.5971 2.18094 -23.7119 2.12445 -23.7936C2.06796 -23.8753 2.1188 -24.1126 2.23743 -24.3194C2.44928 -24.6818 2.46058 -24.6843 2.59899 -24.3653C2.67808 -24.1841 2.74869 -24.1381 2.75434 -24.2607C2.75999 -24.3832 2.59899 -24.6716 2.39561 -24.9038C2.19224 -25.1335 2.02559 -25.2382 2.02559 -25.1361C2.02559 -25.0314 1.94367 -24.9472 1.84198 -24.9472C1.49738 -24.9472 1.65556 -25.2228 2.10185 -25.4117C2.51142 -25.5827 2.52837 -25.6414 2.33065 -26.1034C2.21201 -26.3815 1.97474 -26.6495 1.80526 -26.6955C1.39852 -26.8103 1.19797 -27.2646 1.55387 -27.2672C1.70358 -27.2672 1.82221 -27.3769 1.82221 -27.5071C1.82221 -27.8567 2.16117 -27.992 2.47188 -27.7648C2.6922 -27.6015 2.74022 -27.6296 2.73739 -27.9231C2.73739 -28.1196 2.59899 -28.3263 2.43233 -28.3825C2.15834 -28.4744 2.16117 -28.5075 2.4634 -28.7092C2.78259 -28.9235 2.77976 -28.9338 2.41539 -28.9312C2.20354 -28.9312 1.98322 -29.041 1.9239 -29.1762C1.79679 -29.4672 2.01146 -29.5055 2.30522 -29.2426C2.60746 -28.972 2.9097 -29.2196 2.90122 -29.7326C2.89557 -30.095 2.85885 -30.1333 2.69785 -29.9291C2.53967 -29.7275 2.52555 -29.7454 2.63006 -30.0108C2.70067 -30.1946 2.77976 -30.5085 2.80801 -30.7076C2.83626 -30.9092 2.91252 -31.1542 2.98031 -31.2563C3.0481 -31.3584 2.95772 -31.6366 2.77976 -31.879C2.57074 -32.1649 2.52837 -32.3384 2.6583 -32.3793C2.79671 -32.4226 2.80236 -32.5707 2.67525 -32.8718C2.55097 -33.1602 2.55097 -33.3593 2.67808 -33.4742C2.93229 -33.7064 2.91817 -34.2449 2.6583 -34.2449C2.51142 -34.2449 2.51707 -34.3138 2.6696 -34.4848C2.78824 -34.6176 2.83626 -34.8753 2.77129 -35.054C2.69785 -35.2556 2.75434 -35.4343 2.91817 -35.5185C3.14414 -35.6384 3.14414 -35.6869 2.92382 -35.8707C2.78259 -35.9881 2.66678 -36.0136 2.66678 -35.9294C2.66678 -35.8452 2.55944 -35.7354 2.42386 -35.6895C2.24591 -35.6257 2.16682 -35.8247 2.13292 -36.4475C2.10468 -36.912 2.03971 -37.3535 1.98887 -37.4301C1.9352 -37.5067 2.00299 -37.5475 2.13575 -37.5245C2.27133 -37.499 2.36737 -37.6087 2.35042 -37.7721C2.33347 -37.9533 2.45211 -38.063 2.6696 -38.0656C2.86168 -38.0656 3.01703 -38.0988 3.01703 -38.1371C3.01703 -38.1753 3.06505 -38.3259 3.1272 -38.4688C3.18651 -38.6143 3.14414 -38.7317 3.03398 -38.7317C2.921 -38.7317 2.83061 -38.6194 2.83343 -38.4816C2.83343 -38.2034 2.54814 -38.1447 2.37867 -38.3897C2.31652 -38.4765 2.43516 -38.7011 2.63853 -38.89C3.07918 -39.2932 3.11025 -39.4208 2.73457 -39.2881C2.42951 -39.1809 2.35042 -39.4795 2.64136 -39.6429C2.74304 -39.699 2.82213 -39.9849 2.81648 -40.2758C2.81084 -40.6791 2.76847 -40.7454 2.63288 -40.554C2.5086 -40.3779 2.45493 -40.3677 2.45211 -40.5157C2.45211 -40.6331 2.56227 -40.7684 2.7035 -40.8194C2.921 -40.896 2.921 -40.9751 2.7035 -41.3477C2.486 -41.7204 2.486 -41.8225 2.7148 -42.0547C3.00009 -42.3431 3.07635 -42.6239 2.83343 -42.486C2.60746 -42.3584 2.30805 -42.5881 2.16117 -43.0016C2.06513 -43.2721 2.10468 -43.3742 2.29675 -43.3768C2.61594 -43.3768 2.80236 -43.9587 2.88428 -45.2067C2.91817 -45.7095 2.98596 -46.2148 3.03116 -46.3271C3.07918 -46.442 3.03681 -46.5338 2.94077 -46.5338C2.84191 -46.5338 2.75999 -46.7942 2.75717 -47.1132C2.75717 -47.4654 2.84191 -47.6951 2.98314 -47.6977C3.14979 -47.7002 3.14414 -47.741 2.95772 -47.8457C2.81931 -47.9248 2.75999 -48.0728 2.82778 -48.1749C2.8984 -48.2796 2.82778 -48.3587 2.66678 -48.3587C2.486 -48.3587 2.38714 -48.494 2.39844 -48.7313C2.41256 -49.0121 2.43798 -49.0325 2.50295 -48.8155C2.61311 -48.4429 2.87863 -48.4455 2.99161 -48.8181C3.18934 -49.4766 3.03398 -51.5898 2.77129 -51.8246C2.62441 -51.9548 2.54532 -52.1998 2.59334 -52.3682C2.64983 -52.5647 2.58204 -52.6745 2.40974 -52.6745C2.17812 -52.6745 2.18094 -52.7102 2.42386 -52.9348C2.63006 -53.1237 2.66113 -53.2794 2.5312 -53.4937C2.43233 -53.6571 2.39561 -53.8332 2.45211 -53.8817C2.50578 -53.9327 2.46623 -54.1165 2.35889 -54.2926C2.25438 -54.4687 2.23461 -54.6805 2.31652 -54.7622C2.57357 -55.0225 2.6922 -55.9745 2.48035 -56.0893C2.34195 -56.1659 2.34477 -56.2348 2.49165 -56.319C2.65266 -56.4109 2.64701 -56.5513 2.47188 -56.8907C2.28545 -57.2532 2.28545 -57.368 2.47188 -57.4752C2.75717 -57.6385 2.85321 -58.5905 2.63288 -59.1163C2.53685 -59.3485 2.54815 -59.6293 2.66396 -59.8232C2.81084 -60.0734 2.78824 -60.1703 2.57074 -60.2444C2.41539 -60.298 2.325 -60.3949 2.36737 -60.4587C2.46906 -60.6068 2.46906 -61.5639 2.37302 -62.9216C2.33347 -63.4933 2.37584 -64.0038 2.47188 -64.0599C2.81366 -64.2539 3.02551 -65.0578 2.97467 -65.9537C2.94642 -66.4565 2.91535 -67.6866 2.90687 -68.6922C2.8984 -69.6952 2.83908 -70.591 2.77694 -70.6829C2.60181 -70.9381 2.59052 -71.6221 2.75152 -72.2194C2.84756 -72.5818 2.83343 -72.7247 2.70633 -72.6532C2.60181 -72.5945 2.46341 -72.6201 2.39844 -72.7094C2.33347 -72.7987 2.11315 -72.9187 1.90695 -72.9748C1.61602 -73.0539 1.46631 -72.957 1.22057 -72.5358C0.971999 -72.1071 0.892909 -71.4154 0.842065 -69.172C0.805345 -67.6203 0.731904 -65.604 0.678236 -64.6903C0.596322 -63.33 0.593497 -62.0462 0.664112 -59.5451C0.683885 -58.8202 0.734728 -51.965 0.729079 -51.8271C0.675411 -50.4464 0.723429 -45.5283 0.799695 -45.416C0.853363 -45.3369 0.799694 -44.7652 0.672586 -44.1475C0.548301 -43.5299 0.500283 -42.9939 0.562425 -42.9582C0.624567 -42.9225 0.664112 -42.4197 0.649989 -41.8403C0.633041 -41.261 0.590671 -39.4795 0.551126 -37.8818C0.514406 -36.2841 0.452264 -34.7145 0.412719 -34.3955C0.373173 -34.0765 0.418368 -33.6809 0.511581 -33.5201C0.604794 -33.3593 0.624566 -33.1449 0.55395 -33.0428C0.381648 -32.7851 0.32233 -31.9122 0.268662 -28.8189C0.24324 -27.3488 0.166975 -26.0651 0.102008 -25.9655C0.0342167 -25.866 0.0652874 -25.7358 0.169799 -25.6797C0.274311 -25.621 0.296908 -25.4857 0.220643 -25.3785C0.144378 -25.2713 0.0850608 -22.9412 0.0907098 -20.2026C0.0963587 -17.4641 0.0652874 -15.0165 0.0200933 -14.7613C-0.0251009 -14.5086 0.0087946 -14.2636 0.0935338 -14.2177C0.178273 -14.1717 0.214993 -13.8195 0.175448 -13.4367C0.0681121 -12.3928 0.0850597 -9.69005 0.203694 -8.75083C0.43249 -6.93366 0.497456 -4.35336 0.31668 -4.35336C0.214993 -4.35336 0.186746 -4.27424 0.251713 -4.17981C0.31668 -4.08538 0.279959 -3.90672 0.169798 -3.78421C-0.0533482 -3.53664 0.0229174 -0.246842 0.260187 0.0951536C0.336452 0.204902 0.319504 0.294227 0.226291 0.294227C0.130253 0.294227 0.0878836 0.78936 0.127429 1.41465C0.23194 3.00468 0.231941 3.41303 0.135903 6.0214C0.0878838 7.30006 0.0539882 8.4945 0.0624621 8.67826C0.0963576 9.55878 0.234765 10.7149 0.361873 11.1233C0.449437 11.4066 0.432489 11.5801 0.31103 11.5801C0.192395 11.5801 0.147201 11.9757 0.18957 12.6189C0.226291 13.188 0.274309 13.6551 0.291257 13.6551C0.330802 13.6551 0.336452 14.3212 0.325153 18.5987C0.319504 20.4057 0.367522 21.9294 0.429664 21.9855C0.491806 22.0417 0.452261 22.1871 0.3421 22.3122C0.212167 22.4577 0.200869 22.6083 0.316679 22.7435C0.412716 22.8584 0.486157 23.4505 0.477683 24.0605C0.469209 24.6705 0.531351 25.1324 0.613266 25.0839C0.788393 24.9844 0.601966 26.309 0.384469 26.702C0.29973 26.8551 0.319503 27.0415 0.435313 27.1436C0.553948 27.2507 0.587844 27.6055 0.520052 28.0394C0.339276 29.1828 0.424014 30.7243 0.672582 30.8672C0.844885 30.9668 0.839236 31.0306 0.644336 31.1454C0.491806 31.2373 0.45226 31.3802 0.545473 31.5129C0.681056 31.7095 0.7319 31.9417 0.873132 33.0698C0.895729 33.251 1.02284 33.4782 1.1556 33.57C1.34202 33.7002 1.35332 33.8482 1.20079 34.2209C1.04826 34.5909 1.05673 34.7338 1.24033 34.8385C1.39286 34.9253 1.41264 35.0197 1.294 35.1014C1.00589 35.2979 1.03696 36.306 1.33072 36.3035C1.4663 36.3035 1.58212 36.4515 1.58212 36.6327C1.58494 37.0002 1.3053 37.0819 1.14712 36.7603C1.09063 36.6455 1.07086 36.8547 1.0991 37.2223C1.12735 37.5898 1.21209 37.9752 1.28553 38.0798C1.43523 38.2942 1.133 38.5315 0.88443 38.3937C0.796866 38.3452 0.743198 38.6592 0.765795 39.0905C0.788392 39.5269 0.898553 39.874 1.00871 39.874C1.11887 39.874 1.2714 39.9276 1.34767 39.9965C1.42394 40.0654 1.34202 40.1216 1.16407 40.1216C0.68953 40.1241 0.923974 40.5274 1.44371 40.6014L1.89 40.6652L1.45218 40.7698C1.09628 40.8541 1.00306 40.9995 0.960695 41.5355C0.816639 43.3501 0.856183 44.4884 1.05391 44.3736C1.133 44.3276 1.21491 44.5905 1.23186 44.958C1.25163 45.3255 1.36462 45.7313 1.48608 45.8615C1.66403 46.0529 1.64991 46.0784 1.40416 45.9968C1.21774 45.933 1.09628 45.9815 1.0878 46.1193C1.00024 47.6736 1.05673 51.4075 1.17254 51.4075C1.25728 51.4075 1.29118 51.849 1.24881 52.3926C1.17819 53.3114 1.19796 53.3803 1.57929 53.4288L1.98886 53.4799L1.57364 53.8602C1.19796 54.2047 1.16972 54.3553 1.25446 55.4808C1.35614 56.8029 1.46913 57.1219 1.77137 56.9509C1.89565 56.882 1.91542 56.9764 1.83351 57.2163C1.74594 57.469 1.77137 57.5532 1.90695 57.4767C2.03123 57.4052 2.06795 57.4588 2.00299 57.6119C1.94649 57.7472 1.78831 57.8212 1.64991 57.7753C1.46913 57.714 1.40699 57.8442 1.42111 58.2449C1.43241 58.5486 1.5002 58.8344 1.57364 58.8804C1.64708 58.9263 1.76572 59.1305 1.83916 59.3347C1.94367 59.6307 1.90977 59.6869 1.6838 59.6078C1.34484 59.4929 1.3053 59.7277 1.61601 60.0033C1.78266 60.1514 1.78266 60.2969 1.62166 60.6261C1.31942 61.2386 1.36179 61.4402 1.72335 61.1085C2.07078 60.7894 2.3137 61.0625 1.99451 61.4147C1.72052 61.7184 1.57364 63.1936 1.81656 63.1936C1.94649 63.1936 1.96909 63.3544 1.88435 63.6505C1.81091 63.9031 1.729 64.2579 1.70357 64.4391C1.67533 64.6229 1.63861 64.7709 1.61883 64.7709C1.59906 64.7709 1.56799 65.1257 1.55104 65.5595C1.5341 65.9934 1.58776 66.3482 1.66968 66.3482C1.87305 66.3482 1.87588 68.1296 1.67533 68.2011C1.59059 68.2317 1.58494 68.4053 1.66685 68.589C1.79396 68.8698 1.81656 68.8748 1.82503 68.6298C1.83916 68.2853 2.20353 68.2292 2.20353 68.5712C2.20353 68.7013 2.30805 68.8442 2.43515 68.8876C2.56226 68.9336 2.48035 68.9769 2.25155 68.9846C1.78831 69.0025 1.69227 69.4108 2.11879 69.5563C2.27133 69.6073 2.39561 69.8166 2.39843 70.0208C2.39843 70.3092 2.35324 70.3475 2.17811 70.1944C1.80244 69.86 1.68098 69.9749 1.85045 70.4955C1.97191 70.8707 1.95214 70.9932 1.76572 70.9932C1.56799 70.9932 1.55952 71.0927 1.72617 71.4807C1.83916 71.7487 1.98604 71.9375 2.04818 71.9018C2.11032 71.866 2.16116 72.0753 2.15551 72.3688C2.15269 72.6598 2.20918 73.1983 2.28262 73.5633C2.35606 73.9282 2.37019 74.1324 2.31369 74.0201C2.15269 73.6985 1.87305 73.7802 1.87588 74.1477C1.87588 74.454 2.07925 74.5612 2.50577 74.4872C2.59898 74.4719 2.57074 74.5714 2.44645 74.7092C2.32217 74.847 2.2685 75.1022 2.33064 75.2733C2.45775 75.6255 2.03123 76.7051 1.83633 76.5315C1.58211 76.3044 1.72335 76.9092 2.00863 77.2716C2.25438 77.583 2.26568 77.7336 2.0849 78.1803C1.82786 78.8132 1.60471 84.5021 1.78831 85.7271C1.81091 85.8854 1.99733 86.1789 2.20071 86.378C2.53119 86.7021 2.54814 86.8195 2.36454 87.5392C2.25155 87.9782 2.13009 88.8613 2.09055 89.5019C2.051 90.1399 1.97474 90.972 1.92107 91.3497C1.8674 91.7274 1.90695 92.2276 2.00581 92.4624C2.11314 92.7126 2.12162 92.9295 2.02558 92.9831C1.75724 93.1362 1.89847 93.7334 2.20353 93.736C2.42668 93.736 2.41821 93.7743 2.15551 93.9147C1.89282 94.055 1.87023 94.1393 2.04535 94.3281C2.22048 94.517 2.19788 94.6344 1.94084 94.8973C1.76006 95.0785 1.69227 95.2265 1.78831 95.2265C1.95779 95.2265 2.00581 96.7093 1.85328 97.2172C1.80526 97.378 1.88717 97.4495 2.0849 97.4189C2.45775 97.3602 2.67807 97.6333 2.486 97.9191C2.40973 98.034 2.37019 98.2943 2.40126 98.501C2.43233 98.7052 2.36454 98.8736 2.25155 98.8762C2.00298 98.8762 2.18094 99.8843 2.55661 100.617C2.80518 101.099 2.79953 101.809 2.54814 102.396C2.4747 102.567 2.54249 102.789 2.72044 102.947C3.04245 103.233 3.12154 103.789 2.8532 103.878C2.75999 103.909 2.6583 104.307 2.6244 104.764C2.59051 105.221 2.50012 105.688 2.42385 105.803C2.33347 105.936 2.38713 106.01 2.57074 106.01C2.72891 106.01 2.85885 106.084 2.85885 106.173C2.85885 106.265 2.79953 106.339 2.72327 106.339C2.647 106.339 2.57356 106.535 2.56226 106.778C2.54814 107.018 2.43515 107.39 2.31087 107.605C2.14139 107.898 2.13857 108.049 2.29957 108.222C2.51142 108.45 2.48317 110.489 2.26285 110.815C2.20353 110.902 2.32782 111.058 2.54249 111.157C2.86732 111.311 2.88992 111.382 2.69219 111.602C2.56226 111.744 2.48317 112.076 2.51707 112.339C2.55096 112.602 2.50012 112.816 2.40973 112.816C2.31652 112.816 2.2346 113.079 2.2233 113.398C2.21201 113.717 2.28262 113.978 2.38148 113.978C2.48035 113.978 2.55944 114.131 2.56226 114.317C2.56226 114.506 2.48317 114.613 2.38148 114.557C2.2798 114.501 2.19788 114.534 2.19788 114.631C2.19788 114.728 2.32782 114.807 2.486 114.805C2.74021 114.805 2.74304 114.843 2.50577 115.152C2.27132 115.458 2.27132 115.573 2.51424 116.086C2.74304 116.571 2.75151 116.757 2.56226 117.181C2.40691 117.528 2.39561 117.706 2.53119 117.747C2.66677 117.788 2.67525 118.036 2.55944 118.544C2.43798 119.08 2.46905 119.608 2.67525 120.486C2.89274 121.41 2.90969 121.744 2.74586 121.925C2.29674 122.42 2.17246 123.007 2.28545 124.158C2.35041 124.812 2.33346 125.521 2.25437 125.731C2.15834 125.976 2.17246 126.078 2.28827 126.011C2.54531 125.866 2.52554 126.813 2.26567 127.05C2.10467 127.196 2.11597 127.31 2.30522 127.515C2.51989 127.747 2.51142 127.808 2.2346 127.951C2.00016 128.071 1.96626 128.173 2.10749 128.326C2.22895 128.456 2.28827 129.339 2.26567 130.636C2.2459 131.792 2.29392 132.736 2.37583 132.736C2.64417 132.736 2.55096 134.235 2.27415 134.332C2.09902 134.393 2.01993 134.699 2.02275 135.281C2.0284 136.197 1.89565 137.568 1.74029 138.165C1.68945 138.364 1.72899 138.576 1.83068 138.63C2.09337 138.772 2.06512 139.331 1.79113 139.436C1.6273 139.5 1.65273 139.576 1.88435 139.707C2.25155 139.913 2.33064 140.702 1.98321 140.704C1.8222 140.704 1.75724 141.034 1.76289 141.787C1.76854 142.511 1.83915 142.843 1.97473 142.795C2.19788 142.716 1.99168 144.056 1.70075 144.538C1.61318 144.683 1.61318 144.905 1.70075 145.028C1.78548 145.15 1.82503 145.298 1.78831 145.357C1.57929 145.669 1.55951 146.434 1.76006 146.546C1.93237 146.643 1.92954 146.674 1.74311 146.679C1.61318 146.679 1.54539 146.746 1.59906 146.822C1.65273 146.899 1.71769 147.233 1.74594 147.567C1.77419 147.902 1.86175 148.175 1.94084 148.175C2.11597 148.175 2.14139 149.249 1.98603 149.977C1.92672 150.26 1.8222 150.464 1.75724 150.428C1.64708 150.367 1.63295 151.209 1.74029 151.579C1.76571 151.671 1.77419 151.881 1.75441 152.047C1.73747 152.212 1.8222 152.455 1.94366 152.585C2.11597 152.769 2.11314 152.822 1.94084 152.825C1.77136 152.825 1.74594 153.251 1.83068 154.527C1.90977 155.719 1.8674 156.477 1.69227 157.059C1.55386 157.516 1.48042 158.225 1.52844 158.636C1.65273 159.701 1.63013 160.995 1.48325 161.201C1.41546 161.298 1.33919 161.638 1.31942 161.959C1.29965 162.278 1.25163 162.932 1.21773 163.409C1.18384 163.886 1.22621 164.236 1.31377 164.187C1.40133 164.139 1.47195 164.172 1.47195 164.261C1.47195 164.351 1.37874 164.453 1.26575 164.489C1.11604 164.534 1.13017 164.657 1.31094 164.912C1.51149 165.196 1.51714 165.315 1.34202 165.476C1.03413 165.76 1.0652 166.112 1.39851 166.112C1.74311 166.112 1.76571 166.587 1.42675 166.706C1.22903 166.778 1.21491 166.951 1.35896 167.549C1.48325 168.059 1.48042 168.358 1.35049 168.478C1.24598 168.575 1.21208 168.878 1.27422 169.151C1.36461 169.539 1.33354 169.621 1.14429 169.516C0.966339 169.419 0.932443 169.458 1.01718 169.652C1.08215 169.8 1.0539 169.968 0.957865 170.022C0.847704 170.086 0.844879 170.226 0.952215 170.397C1.05108 170.555 1.05673 170.785 0.969163 170.941C0.799684 171.232 0.83923 171.913 1.03978 172.201C1.10757 172.298 1.12734 173 1.08215 173.758C1.02566 174.697 1.06803 175.175 1.21208 175.254C1.36744 175.338 1.35331 175.499 1.15841 175.856C1.00871 176.132 0.918319 176.681 0.952215 177.122C0.988935 177.635 0.935267 177.903 0.788386 177.913C0.666926 177.921 0.734718 177.99 0.938092 178.066L1.30529 178.207L0.938092 178.222C0.664102 178.235 0.633031 178.273 0.816632 178.378C1.12169 178.551 0.969163 179.669 0.587837 180.057C0.367515 180.282 0.36469 180.511 0.568064 181.56C0.822281 182.875 0.8703 185.345 0.649979 185.675C0.576538 185.784 0.613258 185.871 0.734717 185.871C0.895722 185.871 0.892898 185.935 0.723419 186.124C0.570889 186.292 0.531344 186.652 0.610434 187.208C0.6754 187.668 0.652803 188 0.565239 187.951C0.477676 187.903 0.36469 187.959 0.316671 188.074C0.265828 188.188 0.265828 188.395 0.316671 188.53C0.367515 188.666 0.452254 188.972 0.508747 189.207C0.562415 189.442 0.842054 189.758 1.12734 189.909C1.47195 190.089 1.71204 190.002 1.84762 189.648L1.85045 189.651ZM2.05101 -47.103C2.05948 -47.297 2.10185 -47.3352 2.16117 -47.2025C2.21484 -47.0826 2.20919 -46.9397 2.14987 -46.8835C2.09055 -46.8274 2.04536 -46.9269 2.05101 -47.1004L2.05101 -47.103ZM1.86176 -22.3414C1.86176 -22.4869 1.99169 -22.6043 2.14987 -22.6068C2.4747 -22.6068 2.42103 -22.2521 2.08208 -22.1474C1.96344 -22.1117 1.86458 -22.1985 1.86176 -22.3439L1.86176 -22.3414ZM1.99451 -18.388C1.6951 -18.582 1.68663 -18.6202 1.9352 -18.6228C2.22049 -18.6228 2.55379 -18.3395 2.41539 -18.2144C2.38149 -18.1813 2.18941 -18.2604 1.99451 -18.388ZM1.71205 -12.1274C1.5341 -12.2525 1.38722 -12.3826 1.38722 -12.4158C1.38722 -12.5536 1.53692 -12.4643 1.77984 -12.1912C2.01146 -11.9283 2.00299 -11.9232 1.71205 -12.1274ZM1.41264 -4.64431C1.24034 -4.79744 1.28835 -4.84338 1.63014 -4.84594C1.97192 -4.84594 2.02276 -4.80511 1.85328 -4.64942C1.6838 -4.49374 1.58494 -4.49373 1.41264 -4.64686L1.41264 -4.64431ZM1.9126 -3.11298C2.05948 -3.29163 2.18376 -3.35289 2.18659 -3.2508C2.18941 -3.14871 2.07078 -2.97005 1.92107 -2.8552C1.57364 -2.58977 1.57082 -2.69697 1.9126 -3.11298ZM1.78831 7.688C1.78831 7.55019 1.85611 7.43789 1.93802 7.43789C2.02276 7.43789 2.09055 7.55019 2.09338 7.68546C2.09338 7.82327 2.02558 7.93556 1.94367 7.93556C1.85893 7.93556 1.79114 7.82582 1.78831 7.688ZM2.61311 7.9662C2.49165 7.85901 2.36454 7.60378 2.32782 7.3996C2.26285 7.03464 2.2685 7.03463 2.53967 7.35366C2.88427 7.75946 2.94642 8.26226 2.61311 7.9662ZM1.00307 9.02026C0.901379 8.9641 0.819464 8.89009 0.819464 8.85436C0.819464 8.81863 0.901379 8.74461 1.00307 8.68591C1.10475 8.62976 1.18667 8.70379 1.18667 8.85181C1.18667 8.99984 1.10475 9.07386 1.00307 9.01771L1.00307 9.02026ZM2.78259 10.6537C2.60463 10.2428 2.647 10.0539 2.89557 10.1254C3.16956 10.2045 3.32774 10.9114 3.0707 10.914C2.97184 10.914 2.8419 10.7966 2.77976 10.6537L2.78259 10.6537ZM2.37019 11.1692C2.37019 11.0238 2.48318 10.9268 2.62441 10.9523C2.98314 11.0186 3.01138 11.3147 2.66395 11.3785C2.4973 11.4091 2.37301 11.3198 2.37019 11.1692ZM2.32782 13.6679C2.32782 13.5351 2.40691 13.382 2.5086 13.3259C2.61028 13.2697 2.6922 13.3769 2.69502 13.5632C2.69502 13.7521 2.61593 13.9052 2.51425 13.9052C2.41256 13.9052 2.33064 13.798 2.32782 13.6679ZM1.78267 14.5815C1.78267 14.4922 1.90695 14.4641 2.05665 14.5152C2.20919 14.5662 2.33347 14.6377 2.33347 14.6734C2.33347 14.7092 2.20919 14.7398 2.05948 14.7398C1.90695 14.7398 1.78267 14.6683 1.78267 14.5815ZM2.16399 16.3987C2.16399 16.0899 2.20919 16.044 2.38149 16.1971C2.55379 16.3502 2.55379 16.4396 2.38431 16.5952C2.21483 16.7509 2.16399 16.7075 2.16117 16.3987L2.16399 16.3987ZM2.36736 18.8871C2.13574 18.5707 2.13574 18.4354 2.36172 18.3052C2.46623 18.244 2.54532 18.3997 2.54532 18.6676C2.54532 19.0301 2.50577 19.0785 2.36736 18.8871ZM3.46615 22.6593C3.19216 22.5776 3.0368 22.2025 3.2769 22.1999C3.37576 22.1999 3.50852 22.3173 3.57066 22.4602C3.64128 22.621 3.59891 22.6976 3.46615 22.6568L3.46615 22.6593ZM0.746023 23.2948C0.746023 23.157 0.825112 23.0447 0.92115 23.0447C1.02001 23.0447 1.05391 23.157 0.994591 23.2923C0.938099 23.4301 0.859009 23.5424 0.819464 23.5424C0.779919 23.5424 0.746023 23.4301 0.746023 23.2948ZM2.05665 26.1814C2.05665 26.0844 2.13857 26.0512 2.24026 26.1074C2.34194 26.1635 2.42386 26.2426 2.42668 26.2809C2.42668 26.3217 2.34477 26.3549 2.24308 26.3549C2.14139 26.3549 2.05948 26.2758 2.05665 26.1788L2.05665 26.1814ZM2.98878 27.7714C2.98878 27.7306 3.0707 27.6514 3.17239 27.5953C3.27407 27.5391 3.35599 27.5698 3.35599 27.6668C3.35599 27.7637 3.27407 27.8429 3.17239 27.8429C3.0707 27.8429 2.98878 27.8122 2.98878 27.7714ZM1.39286 33.1668C1.39851 33.029 1.47195 32.7686 1.55669 32.5849L1.71205 32.2531L1.72335 32.5849C1.729 32.7686 1.65838 33.029 1.56234 33.1668C1.40416 33.3888 1.38722 33.3888 1.39286 33.1668ZM3.4831 44.1081C3.4831 44.0163 3.56501 43.9423 3.6667 43.9397C3.76838 43.9397 3.8503 44.0137 3.8503 44.1056C3.8503 44.1975 3.76838 44.2715 3.6667 44.274C3.56501 44.274 3.4831 44.2 3.4831 44.1081ZM3.16674 50.749C3.30797 50.5474 3.34469 50.5704 3.34751 50.8715C3.35034 51.0757 3.27125 51.2467 3.16956 51.2467C2.93794 51.2467 2.93794 51.0731 3.16674 50.749ZM4.16383 51.9052C4.09887 51.7673 3.93504 51.5427 3.80228 51.4049C3.64692 51.2441 3.61585 51.068 3.72036 50.9124C3.94069 50.5857 4.03672 50.7056 4.16948 51.4892C4.23162 51.8541 4.2288 52.0404 4.16383 51.9052ZM2.14139 60.5495C2.14139 60.4577 2.22613 60.3836 2.33347 60.3811C2.4408 60.3811 2.47752 60.4551 2.41538 60.547C2.35324 60.6389 2.26568 60.7129 2.22331 60.7129C2.17811 60.7129 2.14139 60.6389 2.14139 60.547L2.14139 60.5495ZM4.20903 66.5957C4.10734 66.5396 4.02542 66.4605 4.0226 66.4196C4.0226 66.3788 4.10451 66.3456 4.2062 66.3456C4.30789 66.3456 4.3898 66.4247 4.39263 66.5192C4.39263 66.6161 4.31071 66.6493 4.20903 66.5932L4.20903 66.5957ZM3.99435 68.2623C3.93221 67.979 3.98306 67.8412 4.14971 67.8387C4.38698 67.8387 4.41522 68.3797 4.18925 68.589C4.13276 68.6401 4.0452 68.4946 3.99435 68.2623ZM1.92107 79.7218C1.92107 79.584 2.00016 79.4717 2.0962 79.4717C2.19506 79.4717 2.22896 79.584 2.16964 79.7192C2.11314 79.857 2.03405 79.9693 1.99451 79.9693C1.95497 79.9693 1.92107 79.8571 1.92107 79.7218ZM3.78533 82.9554C3.78533 83.0524 3.70342 83.0856 3.60173 83.0295C3.50004 82.9733 3.41813 82.8942 3.4153 82.8559C3.4153 82.8151 3.49722 82.7819 3.5989 82.7819C3.70059 82.7819 3.78251 82.861 3.78533 82.9554ZM2.32782 82.8585C2.33629 82.6645 2.37866 82.6262 2.43798 82.7564C2.49165 82.8763 2.486 83.0193 2.42668 83.0754C2.36454 83.1316 2.32217 83.032 2.32782 82.8585ZM4.79937 83.1341C4.85022 83.18 4.72876 83.3561 4.52538 83.522C4.32484 83.6905 4.12711 83.7951 4.09039 83.7594C3.9887 83.6573 4.68921 83.0371 4.79937 83.1341ZM3.42378 83.6139C3.42378 83.522 3.50852 83.448 3.61585 83.4454C3.72319 83.4454 3.75991 83.5195 3.69777 83.6114C3.63562 83.7032 3.54806 83.7772 3.50569 83.7798C3.4605 83.7798 3.42378 83.7058 3.42378 83.6139ZM2.33064 84.7726C2.33064 84.6756 2.41256 84.6425 2.51424 84.6986C2.61593 84.7548 2.69784 84.8339 2.70067 84.8721C2.70067 84.913 2.61875 84.9462 2.51707 84.9462C2.41538 84.9462 2.33347 84.8671 2.33064 84.7701L2.33064 84.7726ZM4.72311 84.6756C4.72311 84.2469 4.74853 84.2239 4.92366 84.4919C5.06772 84.7114 5.06489 84.8492 4.92366 84.9819C4.77678 85.1172 4.72311 85.0329 4.72311 84.6756ZM2.33629 85.5281C2.33629 85.3903 2.41821 85.278 2.51707 85.278C2.61875 85.278 2.70067 85.3877 2.70349 85.5255C2.70349 85.6633 2.62158 85.7756 2.52272 85.7756C2.42103 85.7756 2.33912 85.6659 2.33629 85.5281ZM3.44355 85.9364C3.44355 85.8445 3.52829 85.7705 3.63562 85.768C3.74296 85.768 3.77968 85.842 3.71754 85.9339C3.6554 86.0257 3.56783 86.0998 3.52546 86.1023C3.48027 86.1023 3.44355 86.0283 3.44355 85.9364ZM2.73739 90.0072C2.6357 89.9511 2.55379 89.8771 2.55379 89.8413C2.55379 89.8056 2.6357 89.7316 2.73739 89.6729C2.83908 89.6167 2.92099 89.6907 2.92099 89.8388C2.92099 89.9868 2.83908 90.0608 2.73739 90.0072ZM2.20071 91.929C2.20071 91.8423 2.2685 91.7351 2.35324 91.6866C2.43798 91.6381 2.50577 91.7095 2.50859 91.8423C2.50859 91.975 2.4408 92.0847 2.35606 92.0847C2.27132 92.0847 2.20353 92.0158 2.20071 91.929ZM3.96328 103.927C3.97176 103.733 4.01412 103.695 4.07344 103.825C4.12711 103.945 4.12146 104.088 4.06214 104.144C4.00283 104.2 3.95763 104.101 3.96328 103.927ZM3.96893 106.421C3.96893 106.28 4.05084 106.209 4.15536 106.265C4.32483 106.359 4.24574 106.678 4.05367 106.678C4.00848 106.678 3.97176 106.563 3.97176 106.421L3.96893 106.421ZM4.01977 112.832C4.01977 112.745 4.10169 112.63 4.20055 112.571C4.30224 112.515 4.38415 112.584 4.38415 112.727C4.38415 112.87 4.30224 112.987 4.20337 112.987C4.10169 112.987 4.01977 112.918 4.01977 112.832ZM4.0226 113.495C4.0226 113.299 4.3785 113.087 4.51126 113.207C4.64402 113.324 4.41522 113.651 4.19773 113.651C4.10169 113.651 4.02542 113.582 4.0226 113.495ZM4.02825 114.159C4.02825 114.072 4.11016 113.957 4.20902 113.899C4.31071 113.842 4.39263 113.911 4.39263 114.054C4.39263 114.197 4.31071 114.315 4.21185 114.315C4.11016 114.315 4.02825 114.246 4.02825 114.159ZM4.32483 115.848C4.38698 115.407 4.35026 115.144 4.23162 115.144C4.12428 115.144 4.03672 114.996 4.03672 114.812C4.0339 114.363 4.32766 114.389 4.49431 114.85C4.66097 115.312 4.61577 115.973 4.39545 116.303C4.28529 116.466 4.26269 116.31 4.32766 115.846L4.32483 115.848ZM4.26552 118.962C4.25987 118.824 4.33331 118.6 4.42935 118.462C4.64402 118.158 4.64684 118.418 4.43217 118.878C4.33048 119.097 4.27117 119.125 4.26552 118.962ZM4.25987 127.219C4.13841 127.183 4.00847 126.935 3.97458 126.67C3.92938 126.32 3.9661 126.233 4.11299 126.361C4.41522 126.624 4.52821 127.295 4.25987 127.219ZM4.18078 132.165C4.07344 132.106 3.98588 131.856 3.9887 131.611L3.99435 131.164L4.27964 131.634C4.5734 132.116 4.52821 132.356 4.18078 132.167L4.18078 132.165ZM3.6328 134.087C3.6328 134.005 3.75426 133.895 3.90679 133.842C4.07344 133.783 4.1836 133.842 4.1836 133.987C4.1836 134.122 4.06214 134.232 3.90961 134.232C3.75708 134.232 3.6328 134.168 3.6328 134.087ZM3.77403 137.006C3.92091 136.874 4.20902 137.022 4.20902 137.231C4.20902 137.318 4.08756 137.389 3.93503 137.389C3.64975 137.389 3.56783 137.195 3.77403 137.006ZM4.27399 145.436C4.1723 145.38 4.08756 145.265 4.08756 145.178C4.08756 145.092 4.16948 145.023 4.27116 145.02C4.37285 145.02 4.45477 145.135 4.45759 145.278C4.45759 145.421 4.37568 145.492 4.27399 145.436ZM3.81922 147.123C3.99717 147.059 4.05084 147.111 3.98305 147.271C3.92938 147.404 3.80792 147.514 3.71754 147.514C3.45202 147.514 3.52546 147.228 3.8164 147.123L3.81922 147.123ZM3.26559 157.641C3.26559 157.549 3.35033 157.475 3.45767 157.473C3.56501 157.473 3.60173 157.547 3.53958 157.638C3.47744 157.73 3.38988 157.804 3.34751 157.807C3.30231 157.807 3.26559 157.733 3.26559 157.641ZM3.41247 158.782C3.70341 158.573 3.70906 158.58 3.48309 158.843C3.34468 159.004 3.20063 159.134 3.16391 159.137C3.0142 159.137 3.11024 159.001 3.41247 158.782ZM3.10176 160.132C3.10176 160.04 3.1865 159.966 3.29384 159.963C3.40118 159.963 3.4379 160.037 3.37575 160.129C3.31361 160.221 3.22605 160.295 3.18368 160.298C3.13849 160.298 3.10176 160.224 3.10176 160.132ZM3.49439 163.531C3.3927 163.475 3.31079 163.36 3.31079 163.276C3.31079 163.036 3.44072 163.09 3.565 163.376C3.62997 163.524 3.5989 163.59 3.49439 163.531ZM2.16116 181.052C2.16116 180.779 2.22613 180.555 2.30804 180.555C2.38995 180.555 2.46057 180.777 2.4634 181.052C2.4634 181.326 2.39843 181.55 2.31651 181.55C2.2346 181.55 2.16398 181.328 2.16116 181.052ZM2.35323 185.164C2.16681 185.108 2.16681 185.07 2.35323 184.965C2.59898 184.825 2.88427 184.965 2.69784 185.133C2.63852 185.187 2.48317 185.202 2.35606 185.167L2.35323 185.164Z" fill="white"/>
</svg>
