<svg width="6" height="33" viewBox="0 0 6 33" fill="none" xmlns="http://www.w3.org/2000/svg">
<path opacity="0.5" d="M1.85044 262.651C1.9606 262.357 2.22047 261.954 2.42667 261.753C2.66958 261.515 2.73173 261.349 2.60179 261.278C2.30521 261.114 2.33628 260.137 2.63569 260.239C2.81082 260.3 2.86731 260.152 2.83906 259.693C2.81647 259.348 2.74303 258.981 2.67241 258.881C2.60179 258.782 2.66394 258.654 2.81082 258.603C2.99159 258.539 3.05374 258.338 3.00007 257.98C2.89273 257.268 2.63004 256.064 2.45491 255.5C2.34758 255.15 2.373 255.048 2.56225 255.084C2.73738 255.117 2.80517 254.969 2.78257 254.591C2.76562 254.295 2.82494 254.052 2.91533 254.05C3.00572 254.05 3.07916 253.915 3.07916 253.751C3.07916 253.588 3.17237 253.366 3.28818 253.259C3.44918 253.113 3.44636 253.006 3.27688 252.825C3.13283 252.669 3.1187 252.549 3.23734 252.48C3.44918 252.36 3.29383 251.891 3.03961 251.891C2.9464 251.891 2.79669 252.059 2.70631 252.266L2.54248 252.641L2.52835 252.268C2.51988 252.064 2.59332 251.893 2.69218 251.893C2.79104 251.893 2.82211 251.781 2.7628 251.643C2.70348 251.508 2.55095 251.396 2.42384 251.396C2.06511 251.396 2.31651 250.535 2.70066 250.444C3.11023 250.344 3.23451 249.788 3.1526 248.44C3.1187 247.866 3.15825 247.358 3.24299 247.31C3.53675 247.144 3.38987 246.911 2.99442 246.914C2.47469 246.916 2.70066 246.712 3.24581 246.682C3.53675 246.666 3.68363 246.541 3.72317 246.273C3.77967 245.896 3.77119 245.893 3.30795 246.171C2.78257 246.488 2.65546 246.329 3.15542 245.982C3.45766 245.77 3.45766 245.76 3.1413 245.758C2.83624 245.755 2.81647 245.625 2.9125 244.135C2.97465 243.149 2.95205 242.601 2.85036 242.731C2.73738 242.879 2.68371 242.79 2.68088 242.44C2.67806 242.024 2.73738 241.95 3.01419 242.026C3.27971 242.1 3.35032 242.032 3.3475 241.705C3.3475 241.475 3.25146 241.238 3.13565 241.174C2.98877 241.092 3.00289 241.021 3.18367 240.929C3.36727 240.835 3.42941 240.472 3.40682 239.627C3.38987 238.984 3.43506 238.492 3.51133 238.532C3.69493 238.632 3.97739 238.29 4.10168 237.82C4.16947 237.56 4.11862 237.448 3.92937 237.448C3.77967 237.448 3.70905 237.519 3.76837 237.603C3.82769 237.688 3.79097 237.805 3.68928 237.864C3.58759 237.922 3.50285 237.866 3.50285 237.744C3.50285 237.407 3.92937 236.621 4.11862 236.618C4.20901 236.618 4.05648 236.427 3.77684 236.197C3.47178 235.947 3.3136 235.679 3.37574 235.526C3.43506 235.386 3.565 235.317 3.66668 235.373C3.78814 235.439 3.79379 235.34 3.68081 235.079C3.39834 234.423 3.26276 233.436 3.46896 233.548C3.57064 233.604 3.65538 233.778 3.65538 233.936C3.65538 234.092 3.82486 234.347 4.02824 234.502C4.38132 234.77 4.39826 234.768 4.39544 234.459C4.39544 234.219 4.3107 234.163 4.07343 234.247C3.88135 234.314 3.96044 234.183 4.26268 233.923C4.57057 233.66 4.69485 233.446 4.57904 233.382C4.4717 233.323 4.38414 233.063 4.38132 232.805C4.38132 232.54 4.25703 232.295 4.10168 232.241C3.94915 232.19 3.83051 232.014 3.83616 231.851C3.84464 231.593 3.86723 231.595 4.00846 231.886C4.16382 232.205 4.20901 232.162 4.25703 231.636C4.27115 231.496 4.42086 231.407 4.60164 231.435C4.83891 231.47 4.92365 231.368 4.92082 231.044C4.92082 230.769 4.83326 230.636 4.6892 230.682C4.55079 230.725 4.33047 230.45 4.13557 229.993C3.84463 229.311 3.82204 229.293 3.9209 229.811C4.02541 230.363 4.01694 230.376 3.7486 230.049C3.42941 229.663 3.44919 228.454 3.77684 228.352C3.88983 228.316 3.98022 228.104 3.98022 227.877C3.98022 227.645 4.05648 227.509 4.16099 227.568C4.32765 227.66 4.42369 227.44 4.36154 227.111C4.35024 227.042 4.42086 226.986 4.5169 226.986C4.61859 226.986 4.64683 226.769 4.58187 226.488C4.49148 226.093 4.53102 225.991 4.77959 225.988C5.00556 225.988 5.05923 225.896 4.97166 225.656C4.9067 225.475 4.84738 225.029 4.83891 224.661C4.82478 224.031 4.71745 223.921 4.17794 223.987C4.05083 224.003 3.94915 223.941 3.94632 223.852C3.94632 223.569 4.2881 223.479 4.67508 223.663C5.04793 223.839 5.22588 223.615 4.86998 223.418C4.77394 223.365 4.74569 223.194 4.81066 223.035C4.91517 222.778 4.88975 222.775 4.57339 222.992C4.37849 223.125 4.11863 223.347 3.99434 223.482C3.67516 223.832 3.4972 223.594 3.54522 222.882C3.59607 222.104 3.64126 222.073 4.21184 222.405C4.57339 222.617 4.69768 222.63 4.75417 222.466C4.88975 222.063 4.79089 221.593 4.51972 221.351C4.28245 221.139 4.26551 221.154 4.38132 221.473C4.47735 221.741 4.43781 221.838 4.23161 221.841C4.04518 221.841 3.98869 221.749 4.06496 221.565C4.15252 221.353 4.10733 221.313 3.87288 221.394C3.63844 221.479 3.565 221.407 3.56217 221.096C3.56217 220.807 3.68363 220.659 3.99152 220.588C4.36154 220.501 4.41804 220.396 4.38132 219.848C4.32765 219.09 4.5056 218.753 4.85586 218.942C5.0677 219.054 5.0677 219.033 4.85586 218.799C4.71745 218.646 4.65248 218.406 4.7118 218.263C4.77394 218.112 4.7005 217.964 4.53667 217.908C4.38132 217.854 4.29375 217.714 4.3446 217.594C4.39544 217.474 4.29375 217.344 4.12427 217.303C3.89548 217.249 3.9209 217.224 4.21466 217.209C4.71462 217.183 4.91517 216.92 4.53385 216.793C4.32765 216.724 4.26551 216.52 4.30788 216.068C4.34177 215.721 4.42369 215.358 4.48865 215.259C4.55362 215.159 4.57339 214.917 4.53102 214.718C4.48865 214.519 4.51972 214.396 4.60446 214.442C4.80219 214.552 4.97732 213.48 4.78242 213.368C4.44346 213.174 4.18642 211.43 4.47735 211.305C4.59034 211.257 4.49713 211.259 4.26833 211.313C3.83334 211.413 3.68363 211.15 4.09038 211.004C4.22031 210.958 4.42086 210.639 4.53385 210.297C4.70615 209.774 4.69203 209.634 4.44063 209.409C4.17229 209.169 4.16947 209.136 4.42651 209.09C4.59034 209.062 4.81066 208.717 4.93495 208.299C5.05641 207.893 5.22871 207.559 5.3191 207.559C5.40666 207.559 5.47728 207.408 5.47728 207.224C5.47728 206.972 5.27955 206.847 4.64683 206.696C4.03389 206.553 3.81921 206.42 3.81639 206.186C3.81639 205.958 3.90113 205.9 4.12145 205.974C4.29093 206.032 4.49995 205.981 4.58752 205.864C4.7118 205.698 4.74005 205.706 4.71745 205.9C4.7005 206.038 4.7005 206.242 4.7118 206.357C4.74005 206.617 5.58744 206.625 5.76256 206.367C5.83318 206.26 5.81906 206.216 5.72584 206.267C5.63546 206.318 5.4575 206.26 5.33039 206.137C5.18634 205.997 5.16657 205.877 5.28238 205.813C5.55637 205.657 5.49705 205.397 5.18634 205.4C5.00556 205.4 4.89823 205.218 4.87563 204.861C4.85586 204.565 4.82196 204.21 4.79654 204.072C4.77394 203.935 4.74287 203.613 4.73157 203.358C4.71745 203.103 4.64118 202.932 4.55644 202.977C4.47171 203.026 4.42369 202.898 4.44628 202.697C4.46888 202.495 4.49713 202.255 4.50843 202.163C4.51972 202.071 4.68355 202.163 4.87563 202.368C5.0677 202.572 5.25413 202.738 5.29085 202.738C5.32757 202.738 5.35299 202.464 5.34734 202.133C5.33604 201.502 5.24848 201.421 4.1384 201.017C3.52545 200.795 3.51698 200.783 3.98304 200.767C4.25138 200.757 4.5169 200.844 4.57057 200.959C4.64118 201.109 4.7231 201.086 4.86433 200.882C4.97167 200.726 5.18069 200.637 5.32757 200.688C5.60438 200.783 5.60156 200.675 5.28238 198.863C5.17504 198.243 5.15244 198.225 4.5508 198.317C3.83334 198.427 3.7034 198.19 4.39262 198.029C4.77677 197.939 4.82479 197.868 4.66943 197.61C4.40956 197.179 4.97732 196.98 5.31627 197.383C5.54224 197.654 5.55637 197.646 5.52812 197.301C5.51117 197.097 5.40101 196.929 5.28238 196.929C4.94625 196.929 4.85303 196.337 5.12137 195.905C5.57331 195.186 5.59874 195.101 5.47163 194.81C5.36147 194.555 5.3191 194.553 5.12985 194.772C5.01121 194.91 4.72875 195.043 4.50278 195.066C4.12992 195.104 4.09038 195.038 4.09603 194.405C4.10168 193.772 4.12428 193.738 4.30788 194.078C4.51972 194.471 4.91235 194.494 4.90952 194.114C4.90952 193.994 5.03098 193.851 5.18351 193.795C5.48293 193.685 5.62981 192.447 5.34169 192.45C5.24848 192.45 5.17222 192.302 5.16939 192.118C5.16939 191.934 5.24848 191.786 5.35017 191.783C5.45186 191.783 5.53377 191.704 5.53377 191.607C5.53377 191.51 5.45186 191.477 5.35017 191.533C5.24566 191.592 5.21459 191.526 5.27673 191.378C5.33605 191.235 5.43773 191.12 5.5027 191.12C5.56767 191.12 5.61851 190.671 5.61286 190.122C5.60721 189.435 5.53377 189.127 5.37559 189.127C5.06488 189.127 5.079 188.854 5.39254 188.744C5.77386 188.609 5.8586 187.858 5.5253 187.56C5.2626 187.325 5.26825 187.251 5.59309 186.761C5.83883 186.386 5.94899 185.906 5.95182 185.201C5.95182 184.252 5.92639 184.186 5.53377 184.188C5.30215 184.188 5.15527 184.252 5.20611 184.323C5.25696 184.397 5.22306 184.499 5.12702 184.553C5.03381 184.607 4.8954 184.41 4.82196 184.119C4.71463 183.693 4.76547 183.532 5.07618 183.3C5.30497 183.129 5.37842 182.986 5.25413 182.95C5.10725 182.907 5.12137 182.815 5.2965 182.647C5.60721 182.348 5.68065 181.33 5.41231 181.041C5.26825 180.886 5.28238 180.827 5.46598 180.822C5.64958 180.817 5.63263 180.758 5.40384 180.602C5.16092 180.436 5.08465 180.11 5.06206 179.158C5.03098 177.815 5.08183 177.363 5.29368 177.05C5.37277 176.93 5.34169 176.845 5.21459 176.845C5.04793 176.845 5.04793 176.789 5.21459 176.605C5.33605 176.473 5.37842 176.21 5.31062 176.024C5.22871 175.799 5.28238 175.651 5.46315 175.587C5.72867 175.493 5.72585 175.373 5.45186 174.73C5.38406 174.571 5.3191 174.316 5.31062 174.163C5.29933 174.01 5.23153 173.831 5.15527 173.762C5.079 173.693 5.01686 173.502 5.01404 173.333C5.01404 173.165 4.93495 173.03 4.84173 173.03C4.60447 173.03 4.40674 172.422 4.3672 171.58C4.3333 170.865 4.38979 170.814 5.1355 170.863C5.36429 170.878 5.54789 170.822 5.54789 170.74C5.54789 170.465 5.30497 170.37 5.06488 170.554C4.88128 170.692 4.79654 170.628 4.69485 170.273C4.61011 169.977 4.63836 169.788 4.77394 169.748C5.06488 169.658 5.03946 169.449 4.7005 169.148C4.44346 168.921 4.45476 168.826 4.78807 168.221C4.99427 167.851 5.09595 167.55 5.01969 167.55C4.9406 167.55 5.16657 167.389 5.51965 167.19C5.92922 166.961 6.07045 166.802 5.90945 166.754C5.6976 166.69 5.6976 166.654 5.90945 166.519C6.07893 166.412 6.01113 166.399 5.70042 166.481C4.72875 166.733 4.44346 166.887 4.33048 167.216C4.26551 167.405 4.1271 167.558 4.02259 167.558C3.91525 167.558 3.88701 167.433 3.95762 167.267C4.14405 166.838 4.25703 166.208 4.24291 165.672C4.23444 165.314 4.2994 165.223 4.5169 165.297C4.67226 165.35 4.92365 165.281 5.07335 165.143C5.31345 164.921 5.31345 164.893 5.05923 164.896C4.71463 164.896 4.41804 164.036 4.73157 163.939C4.84738 163.903 4.94342 163.694 4.9406 163.472C4.9406 163.252 5.01969 163.071 5.12137 163.068C5.22306 163.068 5.30498 162.913 5.30215 162.724C5.30215 162.451 5.22024 162.405 4.90953 162.494C4.55362 162.599 4.5282 162.561 4.61576 162.05C4.79654 160.988 5.00839 160.493 5.28238 160.493C5.43491 160.493 5.58179 160.322 5.61286 160.118C5.64393 159.909 5.57049 159.745 5.44903 159.745C5.28238 159.745 5.2852 159.684 5.45468 159.498C5.62698 159.307 5.62981 159.248 5.46033 159.248C5.21741 159.248 5.28238 158.143 5.58744 157.04C5.68348 156.693 5.72302 156.188 5.675 155.92C5.62134 155.624 5.66653 155.43 5.79081 155.43C5.9038 155.43 5.94334 155.353 5.8812 155.264C5.81906 155.172 5.68348 155.098 5.58179 155.1C5.4801 155.1 5.44621 155.172 5.50552 155.256C5.56484 155.34 5.51965 155.463 5.40666 155.527C4.918 155.805 4.69485 154.559 5.03946 153.452C5.16939 153.028 5.15809 152.847 4.98862 152.75C4.85021 152.671 4.83891 152.62 4.96037 152.617C5.15527 152.612 5.58179 151.92 5.57897 151.606C5.57897 151.52 5.45468 151.448 5.30215 151.451C4.9519 151.451 4.9519 151.155 5.30215 150.384C5.61004 149.705 5.53095 149.457 5.01121 149.46C4.64966 149.46 4.46041 148.886 4.51408 147.936C4.53667 147.551 4.60164 147.5 4.96884 147.582C5.36994 147.668 5.38124 147.651 5.15245 147.324C5.01686 147.13 4.80219 146.972 4.67508 146.974C4.54797 146.974 4.44346 146.864 4.44064 146.727C4.44064 146.589 4.54232 146.477 4.66943 146.474C4.79654 146.474 5.03663 146.247 5.20611 145.976C5.37559 145.703 5.45468 145.489 5.38689 145.499C4.97449 145.55 4.82196 145.451 4.9293 145.188C4.99427 145.027 5.13267 144.843 5.23718 144.779C5.47445 144.634 5.30498 144.47 4.85586 144.409C4.5734 144.371 4.51973 144.22 4.53667 143.516C4.5508 142.809 4.49431 142.653 4.19489 142.567C3.99717 142.51 3.87571 142.426 3.92655 142.38C4.08191 142.237 5.14962 142.875 5.15245 143.113C5.15245 143.235 5.23718 143.289 5.33605 143.233C5.66088 143.049 5.52812 142.651 5.14397 142.653C4.82479 142.653 4.78242 142.572 4.84456 142.033C4.88411 141.691 4.83326 141.318 4.72875 141.204C4.62424 141.089 4.60164 140.997 4.67508 140.997C4.75135 140.997 4.7118 140.887 4.58752 140.754C4.29941 140.443 4.48866 140.17 4.99992 140.157C5.37559 140.15 5.38124 140.134 5.07618 139.93C4.88128 139.8 4.79654 139.601 4.86151 139.438C4.93495 139.259 4.87563 139.167 4.69203 139.169C4.27116 139.172 4.161 138.651 4.43216 137.927C4.64966 137.345 4.63836 137.255 4.31918 136.969C3.84181 136.543 4.05366 136.403 4.64966 136.75C4.93212 136.916 5.0903 137.128 5.03381 137.268C4.98014 137.398 5.03381 137.505 5.15809 137.503C5.30215 137.503 5.38124 137.217 5.37559 136.691C5.37277 136.173 5.2965 135.908 5.16939 135.954C4.90388 136.048 4.47453 135.576 4.62424 135.354C4.68921 135.257 4.84738 135.18 4.97449 135.178C5.28238 135.178 5.27391 134.716 4.9632 134.611C4.83044 134.565 4.64401 134.657 4.54797 134.815C4.38979 135.076 4.36437 135.073 4.24856 134.769C4.17795 134.588 3.99999 134.195 3.85029 133.897C3.68646 133.567 3.63279 133.21 3.71471 132.985C3.78815 132.781 3.82769 132.516 3.79944 132.391C3.7712 132.268 3.83334 132.212 3.9322 132.268C4.03389 132.324 4.16665 132.294 4.23161 132.199C4.42934 131.903 4.92648 131.995 4.79937 132.304C4.7344 132.457 4.79089 132.641 4.92083 132.715C5.24283 132.896 5.43491 132.886 5.43209 132.684C5.43209 132.592 5.32757 132.536 5.20046 132.562C5.07336 132.585 4.99709 132.495 5.02816 132.36C5.25696 131.383 4.99709 130.87 4.26833 130.87C3.70906 130.87 3.97457 131.436 4.59599 131.574C4.92365 131.646 4.91518 131.656 4.5395 131.676C4.30505 131.689 3.9661 131.771 3.78532 131.86C3.49438 132.003 3.46331 131.959 3.51981 131.487C3.5537 131.194 3.70058 130.875 3.84464 130.775C4.03389 130.648 4.07343 130.398 3.99434 129.882C3.90961 129.336 3.94915 129.132 4.16665 129.022C4.39262 128.907 4.41522 128.749 4.28528 128.254C4.19489 127.912 4.161 127.508 4.21184 127.36C4.26551 127.2 4.16947 127.044 3.9774 126.98C3.70058 126.886 3.69493 126.847 3.92373 126.715C4.15817 126.579 4.15535 126.559 3.90678 126.556C3.70623 126.556 3.61302 126.38 3.5989 125.975C3.58195 125.518 3.64691 125.393 3.90678 125.393C4.15535 125.393 4.21467 125.479 4.1384 125.75C4.07061 125.987 4.10451 126.069 4.24291 125.992C4.40957 125.898 4.68356 125.053 4.71745 124.53C4.72028 124.469 4.78524 124.362 4.86151 124.295C5.1016 124.073 5.00557 123.721 4.67226 123.609C3.98022 123.376 3.85029 123.116 4.15535 122.575C4.40957 122.126 4.40957 122.07 4.161 122.072C4.00564 122.072 3.87854 121.955 3.87854 121.807C3.87854 121.638 3.9774 121.575 4.15252 121.633C4.30506 121.684 4.42934 121.661 4.42651 121.58C4.42651 121.498 4.322 121.398 4.19489 121.358C4.01129 121.299 4.01129 121.238 4.18642 121.064C4.3559 120.898 4.35872 120.791 4.19489 120.615C4.02824 120.436 4.03954 120.349 4.24291 120.232C4.45476 120.11 4.43781 120.079 4.161 120.079C3.91808 120.079 3.86724 120.018 3.98587 119.87C4.07908 119.755 4.1723 119.02 4.19207 118.239C4.22597 116.894 4.20619 116.807 3.80227 116.641L3.37575 116.468L3.86724 116.348C4.35025 116.23 4.74287 115.758 4.35307 115.761C4.22032 115.761 4.23162 115.676 4.38132 115.51C4.51408 115.362 4.53103 115.26 4.42087 115.26C4.21467 115.26 4.24856 113.954 4.47453 113.267C4.59882 112.887 4.58187 112.871 4.29376 113.088C4.00847 113.303 3.98305 113.287 4.03672 112.91C4.06779 112.68 4.22314 112.313 4.3785 112.09C4.63554 111.726 4.63554 111.649 4.3672 111.269C4.18925 111.019 3.9435 110.876 3.75143 110.911C3.40117 110.978 3.30796 110.702 3.62432 110.526C3.73165 110.465 3.77402 110.312 3.72036 110.184C3.66386 110.056 3.69493 109.952 3.78532 109.952C3.98305 109.952 3.96327 109.278 3.75708 109.03C3.55088 108.783 3.62149 106.802 3.83334 106.917C3.92938 106.971 3.94633 106.925 3.87006 106.815C3.7938 106.705 3.83052 106.506 3.95198 106.374C4.11863 106.19 4.12145 106.131 3.9548 106.131C3.83334 106.131 3.78815 106.057 3.85029 105.965C3.91243 105.873 3.82769 105.751 3.66104 105.695C3.48026 105.633 3.3927 105.47 3.44354 105.291C3.49156 105.125 3.43507 104.96 3.31643 104.921C3.1639 104.87 3.16955 104.791 3.33338 104.63C3.51981 104.449 3.56218 104.462 3.565 104.702C3.565 104.863 3.64974 104.947 3.7486 104.891C3.85594 104.829 3.88136 104.903 3.81074 105.074C3.72883 105.268 3.7599 105.322 3.90678 105.238C4.02542 105.171 4.11863 104.939 4.11863 104.722C4.11863 104.505 4.18925 104.286 4.27681 104.235C4.48301 104.117 4.37567 102.76 4.1271 102.367C3.9548 102.096 3.92091 102.109 3.7486 102.525C3.51133 103.099 3.25429 103.112 3.13283 102.555C3.05939 102.216 3.14696 102.065 3.54523 101.843C4.01694 101.58 4.03672 101.527 3.82204 101.067C3.69493 100.797 3.62997 100.445 3.67234 100.284C3.71753 100.123 3.61584 99.8067 3.44919 99.5795C3.16955 99.1992 3.1978 99.0946 3.56783 99.1431C3.7599 99.1686 3.7373 98.5382 3.54523 98.431C3.46049 98.3851 3.3814 98.1197 3.3701 97.8415C3.35598 97.4484 3.42942 97.3361 3.70623 97.3361C3.90113 97.3361 4.06214 97.2595 4.05931 97.1677C4.05931 97.0758 3.91808 97.0018 3.7486 97.0043C3.47744 97.0043 3.48309 96.9737 3.7938 96.7593C4.07909 96.5602 4.09886 96.4837 3.89831 96.3637C3.72318 96.2616 3.70906 96.1825 3.85029 96.1008C4.06214 95.9809 4.1271 94.3449 3.92373 94.3475C3.85876 94.3475 3.71188 94.4649 3.5989 94.6104C3.4153 94.8375 3.38987 94.8273 3.38705 94.5287C3.38705 94.3398 3.46049 94.1841 3.55088 94.1841C3.64409 94.1841 3.63279 94.0897 3.52546 93.9774C3.31926 93.7554 3.30231 93.6967 3.29666 93.1913C3.29666 92.9897 3.16955 92.857 2.97183 92.8519C2.70066 92.8468 2.71479 92.8034 3.06222 92.5813C3.33621 92.4052 3.47461 92.1449 3.47744 91.7978C3.47744 91.5119 3.5989 90.9785 3.74013 90.6136C4.06779 89.7739 4.06496 89.6871 3.72883 89.8071C3.57913 89.8607 3.45484 90.0061 3.45484 90.1287C3.45484 90.2537 3.29666 90.4324 3.10459 90.5268C2.72044 90.7157 2.17246 90.6034 2.17246 90.3379C2.17246 90.2461 2.30239 90.2154 2.46057 90.2716C2.969 90.4426 3.35598 89.8811 3.38987 88.9189C3.40682 88.4263 3.34186 87.8368 3.24299 87.6096C3.08199 87.237 3.10176 87.2038 3.43224 87.2957C3.64409 87.3544 3.79945 87.3238 3.79945 87.2217C3.79945 87.1247 3.71471 87.0456 3.61302 87.0456C3.49721 87.0456 3.47179 86.7802 3.54523 86.3412C3.65539 85.6929 3.63844 85.6546 3.35598 85.869C2.97183 86.16 2.73738 85.989 3.04809 85.6444C3.17803 85.4989 3.1978 85.3892 3.09329 85.3917C2.73738 85.3917 2.64982 84.8303 2.97465 84.6108C3.22605 84.4423 3.34751 84.4398 3.57065 84.6031C3.76555 84.7435 3.81075 84.746 3.72036 84.6133C3.50851 84.2968 3.43507 83.3985 3.61585 83.2964C3.80792 83.1866 3.61585 82.5358 3.35033 82.3827C3.11871 82.25 3.3588 81.5379 3.59325 81.6655C3.73166 81.7421 3.71753 80.3766 3.57913 79.9325C3.56783 79.8994 3.43789 79.9632 3.28819 80.078C3.06787 80.2465 2.99443 80.2337 2.89839 80.0142C2.83342 79.8662 2.88426 79.6339 3.00572 79.4961C3.19497 79.2868 3.15543 79.2486 2.76281 79.2511C2.47187 79.2511 2.26284 79.3634 2.212 79.5446C2.14986 79.7641 2.12444 79.7437 2.10467 79.4629C2.09054 79.2588 2.16398 79.0903 2.26284 79.0878C2.36453 79.0878 2.43232 79.0316 2.41538 78.9627C2.33629 78.6488 2.68089 77.9342 2.87014 78.0184C2.98595 78.0694 2.93511 78.0056 2.75716 77.8755C2.36171 77.5845 2.34193 77.4288 2.70631 77.4263C2.88709 77.4263 2.97748 77.268 2.96618 76.9694L2.95206 76.5126L2.77693 76.9158C2.53683 77.4697 2.19505 77.1404 2.15268 76.3186C2.13009 75.8975 2.22895 75.6014 2.44645 75.4228C2.62722 75.2748 2.71479 75.1012 2.63852 75.0348C2.42102 74.8409 2.4295 73.552 2.64982 73.2942C2.80235 73.1181 2.7967 73.0416 2.6244 72.9905C2.49729 72.9522 2.39278 72.8425 2.39278 72.7481C2.39278 72.6511 2.2459 72.475 2.06795 72.355C1.76006 72.1457 1.76006 72.1355 2.07077 72.1279C2.32499 72.1228 2.35888 72.0564 2.22612 71.8318C1.77983 71.0866 2.07359 69.8385 2.73738 69.6777C3.0142 69.6114 3.10176 69.448 3.09611 69.0065C3.09329 68.4961 3.05657 68.4527 2.80518 68.6441C2.56508 68.8253 2.48882 68.8227 2.35041 68.6262C2.23742 68.4654 2.27414 68.3251 2.46622 68.1949C2.62157 68.0877 2.74303 67.9575 2.73738 67.9039C2.68654 67.5033 2.74303 67.4497 3.00855 67.6462C3.25994 67.8325 3.28536 67.7968 3.20627 67.3756C3.15543 67.1102 3.09894 66.855 3.07917 66.809C3.05939 66.7631 3.05092 66.6712 3.06222 66.6023C3.07352 66.5334 2.96053 66.4798 2.81365 66.4798C2.64982 66.4798 2.58485 66.5794 2.65265 66.7299C2.72044 66.8882 2.65265 66.98 2.46622 66.98C2.11314 66.98 2.05665 66.3165 2.3843 66.0179C2.55378 65.8622 2.53684 65.8188 2.31086 65.8188C2.14986 65.8188 1.96908 65.709 1.90977 65.5712C1.85045 65.436 1.88717 65.3237 1.99168 65.3211C2.09619 65.3211 2.13291 65.2547 2.07642 65.1731C2.01993 65.0914 2.10184 64.9791 2.26002 64.923C2.4182 64.8668 2.50011 64.7545 2.44362 64.6754C2.38713 64.5937 2.46057 64.4355 2.61028 64.3232C2.75716 64.2109 2.84472 63.9608 2.80235 63.7643C2.75998 63.5677 2.71761 63.241 2.70914 63.0343C2.69784 62.8199 2.57638 62.6617 2.4182 62.6617C2.26567 62.6617 2.14139 62.5851 2.14139 62.4881C2.14139 62.3912 2.22613 62.3605 2.33346 62.4192C2.68372 62.6107 3.05657 62.1308 3.05374 61.4953C3.05092 61.0819 2.95206 60.8369 2.75998 60.7705C2.5905 60.7118 2.52836 60.5893 2.60745 60.4693C2.85884 60.0967 2.83342 59.4893 2.56508 59.3974C2.4182 59.3489 2.29957 59.0988 2.29674 58.841C2.29109 58.2846 2.46339 57.8227 2.6357 57.9171C2.73456 57.9707 2.76846 56.5542 2.66959 56.3934C2.65547 56.3705 2.65265 56.3041 2.66112 56.2454C2.66959 56.1867 2.56508 56.077 2.4295 56.0004C2.25155 55.9009 2.29674 55.86 2.5905 55.8575C2.95206 55.8524 2.99443 55.7682 2.97465 55.1122C2.96053 54.6605 2.87297 54.3874 2.74586 54.4078C2.63287 54.4282 2.53966 54.293 2.53684 54.1118C2.53684 53.8642 2.64135 53.7902 2.96053 53.8183C3.33903 53.854 3.35598 53.831 3.11024 53.609C2.77975 53.3155 2.25437 53.2848 2.2572 53.5579C2.2572 53.6626 2.20635 53.7034 2.13856 53.6447C2.0736 53.586 2.11596 53.4303 2.23742 53.3002C2.40408 53.1138 2.40408 53.0322 2.23177 52.9377C2.06512 52.8459 2.07924 52.7693 2.27979 52.6315C2.67807 52.3609 2.8193 51.6974 2.50012 51.5902C2.35606 51.5417 2.23742 51.3886 2.23742 51.2507C2.23742 51.0721 2.37018 51.0236 2.69502 51.0772C3.16108 51.1537 3.31644 50.9776 2.95488 50.7786C2.84472 50.7199 2.80518 50.5591 2.86167 50.4213C2.92664 50.263 2.8306 50.1431 2.59898 50.0895C2.39843 50.0435 2.27697 49.9389 2.33064 49.8598C2.38431 49.7807 2.29957 49.7602 2.14421 49.8138C1.83068 49.9236 1.74594 49.6301 2.04252 49.4616C2.14421 49.4029 2.18093 49.2881 2.12444 49.2064C2.06795 49.1247 2.11879 48.8874 2.23742 48.6806C2.44927 48.3182 2.46057 48.3157 2.59898 48.6347C2.67807 48.8159 2.74868 48.8619 2.75433 48.7393C2.75998 48.6168 2.59898 48.3284 2.3956 48.0962C2.19223 47.8665 2.02558 47.7618 2.02558 47.8639C2.02558 47.9686 1.94366 48.0528 1.84198 48.0528C1.49737 48.0528 1.65555 47.7772 2.10184 47.5883C2.51141 47.4173 2.52836 47.3586 2.33064 46.8966C2.212 46.6185 1.97473 46.3505 1.80526 46.3045C1.39851 46.1897 1.19796 45.7354 1.55386 45.7328C1.70357 45.7328 1.8222 45.6231 1.8222 45.4929C1.8222 45.1433 2.16116 45.008 2.47187 45.2352C2.69219 45.3985 2.74021 45.3704 2.73739 45.0769C2.73739 44.8804 2.59898 44.6737 2.43232 44.6175C2.15833 44.5256 2.16116 44.4925 2.4634 44.2908C2.78258 44.0765 2.77975 44.0662 2.41538 44.0688C2.20353 44.0688 1.98321 43.959 1.92389 43.8238C1.79678 43.5328 2.01145 43.4945 2.30522 43.7574C2.60745 44.028 2.90969 43.7804 2.90121 43.2674C2.89556 42.905 2.85884 42.8667 2.69784 43.0709C2.53966 43.2725 2.52554 43.2546 2.63005 42.9892C2.70066 42.8054 2.77975 42.4915 2.808 42.2924C2.83625 42.0908 2.91251 41.8458 2.9803 41.7437C3.0481 41.6416 2.95771 41.3634 2.77975 41.121C2.57073 40.8351 2.52836 40.6616 2.6583 40.6207C2.7967 40.5774 2.80235 40.4293 2.67524 40.1282C2.55096 39.8398 2.55096 39.6407 2.67807 39.5258C2.93229 39.2936 2.91816 38.7551 2.6583 38.7551C2.51141 38.7551 2.51706 38.6862 2.66959 38.5152C2.78823 38.3825 2.83625 38.1247 2.77128 37.946C2.69784 37.7444 2.75433 37.5657 2.91816 37.4815C3.14413 37.3616 3.14413 37.3131 2.92381 37.1293C2.78258 37.0119 2.66677 36.9864 2.66677 37.0706C2.66677 37.1548 2.55943 37.2646 2.42385 37.3105C2.2459 37.3743 2.16681 37.1753 2.13291 36.5525C2.10467 36.088 2.0397 35.6465 1.98886 35.5699C1.93519 35.4933 2.00298 35.4525 2.13574 35.4755C2.27132 35.501 2.36736 35.3913 2.35041 35.2279C2.33346 35.0467 2.4521 34.937 2.66959 34.9344C2.86167 34.9344 3.01702 34.9012 3.01702 34.8629C3.01702 34.8247 3.06504 34.6741 3.12719 34.5312C3.1865 34.3857 3.14413 34.2683 3.03397 34.2683C2.92099 34.2683 2.8306 34.3806 2.83342 34.5184C2.83342 34.7966 2.54813 34.8553 2.37866 34.6103C2.31651 34.5235 2.43515 34.2989 2.63852 34.11C3.07917 33.7068 3.11024 33.5792 2.73456 33.7119C2.4295 33.8191 2.35041 33.5205 2.64135 33.3571C2.74304 33.301 2.82212 33.0151 2.81648 32.7242C2.81083 32.3209 2.76846 32.2546 2.63287 32.446C2.50859 32.6221 2.45492 32.6323 2.4521 32.4843C2.4521 32.3669 2.56226 32.2316 2.70349 32.1806C2.92099 32.104 2.92099 32.0249 2.70349 31.6523C2.48599 31.2796 2.48599 31.1775 2.71479 30.9453C3.00008 30.6569 3.07634 30.3761 2.83342 30.514C2.60745 30.6416 2.30804 30.4119 2.16116 29.9984C2.06512 29.7279 2.10467 29.6258 2.29674 29.6232C2.61593 29.6232 2.80235 29.0413 2.88427 27.7933C2.91816 27.2905 2.98595 26.7852 3.03115 26.6729C3.07917 26.558 3.0368 26.4662 2.94076 26.4662C2.8419 26.4662 2.75998 26.2058 2.75716 25.8868C2.75716 25.5346 2.8419 25.3049 2.98313 25.3023C3.14978 25.2998 3.14413 25.259 2.95771 25.1543C2.8193 25.0752 2.75998 24.9272 2.82777 24.8251C2.89839 24.7204 2.82777 24.6413 2.66677 24.6413C2.48599 24.6413 2.38713 24.506 2.39843 24.2687C2.41255 23.9879 2.43797 23.9675 2.50294 24.1845C2.6131 24.5571 2.87862 24.5545 2.9916 24.1819C3.18933 23.5234 3.03397 21.4102 2.77128 21.1754C2.6244 21.0452 2.54531 20.8002 2.59333 20.6318C2.64982 20.4353 2.58203 20.3255 2.40973 20.3255C2.17811 20.3255 2.18093 20.2898 2.42385 20.0652C2.63005 19.8763 2.66112 19.7206 2.53119 19.5063C2.43233 19.3429 2.39561 19.1668 2.4521 19.1183C2.50577 19.0673 2.46622 18.8835 2.35889 18.7074C2.25437 18.5313 2.2346 18.3195 2.31652 18.2378C2.57356 17.9775 2.69219 17.0255 2.48034 16.9107C2.34194 16.8341 2.34476 16.7652 2.49164 16.681C2.65265 16.5891 2.647 16.4487 2.47187 16.1093C2.28544 15.7468 2.28544 15.632 2.47187 15.5248C2.75716 15.3615 2.8532 14.4095 2.63288 13.8837C2.53684 13.6515 2.54814 13.3707 2.66395 13.1768C2.81083 12.9266 2.78823 12.8297 2.57073 12.7556C2.41538 12.702 2.32499 12.6051 2.36736 12.5413C2.46905 12.3932 2.46905 11.4361 2.37301 10.0784C2.33346 9.50667 2.37583 8.99623 2.47187 8.94008C2.81365 8.74611 3.0255 7.94216 2.97466 7.04633C2.94641 6.54355 2.91534 5.31338 2.90686 4.3078C2.89839 3.30478 2.83907 2.40895 2.77693 2.31707C2.6018 2.06185 2.59051 1.37786 2.75151 0.780639C2.84755 0.418224 2.83342 0.2753 2.70632 0.346762C2.6018 0.405463 2.4634 0.379941 2.39843 0.290613C2.33346 0.201285 2.11314 0.0813311 1.90694 0.0251823C1.61601 -0.0539364 1.4663 0.0430478 1.22056 0.464164C0.971989 0.892936 0.8929 1.58459 0.842056 3.82799C0.805336 5.37973 0.731895 7.39599 0.678227 8.30968C0.596312 9.67001 0.593487 10.9538 0.664103 13.4549C0.683876 14.1798 0.734719 21.035 0.72907 21.1729C0.675401 22.5536 0.72342 27.4717 0.799686 27.584C0.853354 27.6631 0.799685 28.2348 0.672576 28.8525C0.548292 29.4701 0.500274 30.0061 0.562416 30.0418C0.624558 30.0775 0.664103 30.5803 0.649979 31.1597C0.633032 31.739 0.590662 33.5205 0.551117 35.1182C0.514396 36.7159 0.452254 38.2855 0.412709 38.6045C0.373164 38.9235 0.418359 39.3191 0.511572 39.4799C0.604785 39.6407 0.624557 39.8551 0.553941 39.9572C0.381638 40.2149 0.322321 41.0878 0.268653 44.1811C0.243231 45.6512 0.166966 46.9349 0.101999 47.0345C0.0342076 47.134 0.0652783 47.2642 0.16979 47.3203C0.274301 47.379 0.296899 47.5143 0.220634 47.6215C0.144368 47.7287 0.0850514 50.0588 0.0907005 52.7974C0.0963497 55.5359 0.0652782 57.9835 0.020084 58.2387C-0.0251102 58.4914 0.00878544 58.7364 0.0935246 58.7823C0.178264 58.8283 0.214984 59.1805 0.175439 59.5633C0.0681027 60.6072 0.0850504 63.31 0.203685 64.2492C0.432481 66.0663 0.497447 68.6466 0.316671 68.6466C0.214984 68.6466 0.186737 68.7258 0.251704 68.8202C0.316671 68.9146 0.27995 69.0933 0.169789 69.2158C-0.0533574 69.4634 0.0229081 72.7532 0.260178 73.0952C0.336443 73.2049 0.319495 73.2942 0.226282 73.2942C0.130244 73.2942 0.0878745 73.7894 0.127419 74.4146C0.231931 76.0047 0.231931 76.413 0.135894 79.0214C0.0878746 80.3001 0.0539789 81.4945 0.0624528 81.6783C0.0963484 82.5588 0.234755 83.7149 0.361864 84.1233C0.449428 84.4066 0.43248 84.5801 0.31102 84.5801C0.192386 84.5801 0.147192 84.9757 0.189561 85.6189C0.226281 86.188 0.2743 86.6551 0.291248 86.6551C0.330793 86.6551 0.336442 87.3212 0.325143 91.5987C0.319494 93.4057 0.367513 94.9294 0.429655 94.9855C0.491797 95.0417 0.452252 95.1871 0.342091 95.3122C0.212158 95.4577 0.200859 95.6083 0.316669 95.7435C0.412707 95.8584 0.486147 96.4505 0.477673 97.0605C0.469199 97.6705 0.531342 98.1324 0.613256 98.0839C0.788384 97.9844 0.601957 99.309 0.38446 99.702C0.299721 99.8551 0.319494 100.041 0.435304 100.144C0.553939 100.251 0.587834 100.606 0.520043 101.039C0.339266 102.183 0.424005 103.724 0.672573 103.867C0.844876 103.967 0.839227 104.031 0.644327 104.145C0.491796 104.237 0.452251 104.38 0.545464 104.513C0.681047 104.709 0.731891 104.942 0.873123 106.07C0.89572 106.251 1.02283 106.478 1.15559 106.57C1.34201 106.7 1.35331 106.848 1.20078 107.221C1.04825 107.591 1.05672 107.734 1.24032 107.838C1.39286 107.925 1.41263 108.02 1.29399 108.101C1.00588 108.298 1.03695 109.306 1.33071 109.303C1.4663 109.303 1.58211 109.451 1.58211 109.633C1.58493 110 1.30529 110.082 1.14711 109.76C1.09062 109.645 1.07085 109.855 1.09909 110.222C1.12734 110.59 1.21208 110.975 1.28552 111.08C1.43522 111.294 1.13299 111.532 0.884421 111.394C0.796857 111.345 0.743189 111.659 0.765786 112.09C0.788383 112.527 0.898544 112.874 1.0087 112.874C1.11887 112.874 1.2714 112.928 1.34766 112.997C1.42393 113.065 1.34201 113.122 1.16406 113.122C0.68952 113.124 0.923965 113.527 1.4437 113.601L1.88999 113.665L1.45217 113.77C1.09627 113.854 1.00306 114 0.960686 114.536C0.816629 116.35 0.856174 117.488 1.0539 117.374C1.13299 117.328 1.2149 117.591 1.23185 117.958C1.25162 118.326 1.36461 118.731 1.48607 118.862C1.66402 119.053 1.6499 119.078 1.40415 118.997C1.21773 118.933 1.09627 118.981 1.08779 119.119C1.00023 120.674 1.05672 124.407 1.17253 124.407C1.25727 124.407 1.29117 124.849 1.2488 125.393C1.17818 126.311 1.19795 126.38 1.57928 126.429L1.98885 126.48L1.57363 126.86C1.19795 127.205 1.16971 127.355 1.25445 128.481C1.35613 129.803 1.46912 130.122 1.77136 129.951C1.89564 129.882 1.91541 129.976 1.8335 130.216C1.74593 130.469 1.77136 130.553 1.90694 130.477C2.03122 130.405 2.06794 130.459 2.00298 130.612C1.94648 130.747 1.7883 130.821 1.6499 130.775C1.46912 130.714 1.40698 130.844 1.4211 131.245C1.4324 131.549 1.50019 131.834 1.57363 131.88C1.64707 131.926 1.76571 132.13 1.83915 132.335C1.94366 132.631 1.90976 132.687 1.68379 132.608C1.34484 132.493 1.30529 132.728 1.616 133.003C1.78265 133.151 1.78265 133.297 1.62165 133.626C1.31941 134.239 1.36178 134.44 1.72334 134.108C2.07077 133.789 2.31369 134.063 1.9945 134.415C1.72051 134.718 1.57363 136.194 1.81655 136.194C1.94648 136.194 1.96908 136.354 1.88434 136.65C1.8109 136.903 1.72899 137.258 1.70356 137.439C1.67532 137.623 1.6386 137.771 1.61882 137.771C1.59905 137.771 1.56798 138.126 1.55103 138.56C1.53409 138.993 1.58775 139.348 1.66967 139.348C1.87304 139.348 1.87587 141.13 1.67532 141.201C1.59058 141.232 1.58493 141.405 1.66684 141.589C1.79395 141.87 1.81655 141.875 1.82502 141.63C1.83915 141.285 2.20352 141.229 2.20352 141.571C2.20352 141.701 2.30804 141.844 2.43514 141.888C2.56225 141.934 2.48034 141.977 2.25154 141.985C1.7883 142.002 1.69227 142.411 2.11879 142.556C2.27132 142.607 2.3956 142.817 2.39842 143.021C2.39842 143.309 2.35323 143.347 2.1781 143.194C1.80243 142.86 1.68097 142.975 1.85045 143.496C1.9719 143.871 1.95213 143.993 1.76571 143.993C1.56798 143.993 1.55951 144.093 1.72616 144.481C1.83915 144.749 1.98603 144.938 2.04817 144.902C2.11031 144.866 2.16115 145.075 2.15551 145.369C2.15268 145.66 2.20917 146.198 2.28261 146.563C2.35605 146.928 2.37018 147.132 2.31369 147.02C2.15268 146.699 1.87304 146.78 1.87587 147.148C1.87587 147.454 2.07924 147.561 2.50576 147.487C2.59897 147.472 2.57073 147.571 2.44644 147.709C2.32216 147.847 2.26849 148.102 2.33063 148.273C2.45774 148.625 2.03122 149.705 1.83632 149.532C1.5821 149.304 1.72334 149.909 2.00862 150.272C2.25437 150.583 2.26567 150.734 2.08489 151.18C1.82785 151.813 1.6047 157.502 1.7883 158.727C1.8109 158.885 1.99733 159.179 2.2007 159.378C2.53118 159.702 2.54813 159.82 2.36453 160.539C2.25154 160.978 2.13008 161.861 2.09054 162.502C2.05099 163.14 1.97473 163.972 1.92106 164.35C1.86739 164.727 1.90694 165.228 2.0058 165.462C2.11314 165.713 2.12161 165.93 2.02557 165.983C1.75723 166.136 1.89846 166.733 2.20352 166.736C2.42667 166.736 2.4182 166.774 2.1555 166.915C1.89281 167.055 1.87022 167.139 2.04534 167.328C2.22047 167.517 2.19787 167.634 1.94083 167.897C1.76006 168.078 1.69226 168.227 1.7883 168.227C1.95778 168.227 2.0058 169.709 1.85327 170.217C1.80525 170.378 1.88716 170.449 2.08489 170.419C2.45774 170.36 2.67806 170.633 2.48599 170.919C2.40972 171.034 2.37018 171.294 2.40125 171.501C2.43232 171.705 2.36453 171.874 2.25154 171.876C2.00297 171.876 2.18093 172.884 2.5566 173.617C2.80517 174.099 2.79952 174.809 2.54813 175.396C2.47469 175.567 2.54248 175.789 2.72043 175.947C3.04244 176.233 3.12153 176.789 2.85319 176.878C2.75998 176.909 2.65829 177.307 2.62439 177.764C2.5905 178.221 2.50011 178.688 2.42384 178.803C2.33346 178.936 2.38712 179.01 2.57073 179.01C2.72891 179.01 2.85884 179.084 2.85884 179.173C2.85884 179.265 2.79952 179.339 2.72326 179.339C2.64699 179.339 2.57355 179.535 2.56225 179.778C2.54813 180.018 2.43514 180.39 2.31086 180.605C2.14138 180.898 2.13856 181.049 2.29956 181.222C2.51141 181.45 2.48316 183.489 2.26284 183.815C2.20352 183.902 2.32781 184.058 2.54248 184.157C2.86731 184.311 2.88991 184.382 2.69218 184.602C2.56225 184.744 2.48316 185.076 2.51706 185.339C2.55095 185.602 2.50011 185.816 2.40972 185.816C2.31651 185.816 2.23459 186.079 2.22329 186.398C2.212 186.717 2.28261 186.978 2.38147 186.978C2.48034 186.978 2.55943 187.131 2.56225 187.317C2.56225 187.506 2.48316 187.613 2.38147 187.557C2.27979 187.501 2.19787 187.534 2.19787 187.631C2.19787 187.728 2.32781 187.807 2.48599 187.805C2.7402 187.805 2.74303 187.843 2.50576 188.152C2.27131 188.458 2.27131 188.573 2.51423 189.086C2.74303 189.571 2.7515 189.757 2.56225 190.181C2.4069 190.528 2.3956 190.706 2.53118 190.747C2.66676 190.788 2.67524 191.036 2.55943 191.544C2.43797 192.08 2.46904 192.608 2.67524 193.486C2.89273 194.41 2.90968 194.744 2.74585 194.925C2.29674 195.42 2.17245 196.007 2.28544 197.158C2.3504 197.812 2.33346 198.521 2.25437 198.731C2.15833 198.976 2.17245 199.078 2.28826 199.011C2.5453 198.866 2.52553 199.813 2.26566 200.05C2.10466 200.196 2.11596 200.31 2.30521 200.515C2.51988 200.747 2.51141 200.808 2.23459 200.951C2.00015 201.071 1.96625 201.173 2.10748 201.326C2.22894 201.456 2.28826 202.339 2.26566 203.636C2.24589 204.792 2.29391 205.736 2.37582 205.736C2.64417 205.736 2.55095 207.235 2.27414 207.332C2.09901 207.393 2.01992 207.699 2.02274 208.281C2.02839 209.197 1.89564 210.568 1.74028 211.165C1.68944 211.364 1.72898 211.576 1.83067 211.63C2.09336 211.772 2.06511 212.331 1.79112 212.436C1.6273 212.5 1.65272 212.576 1.88434 212.707C2.25154 212.913 2.33063 213.702 1.9832 213.704C1.8222 213.704 1.75723 214.034 1.76288 214.787C1.76853 215.511 1.83914 215.843 1.97473 215.795C2.19787 215.716 1.99167 217.056 1.70074 217.538C1.61317 217.683 1.61317 217.905 1.70074 218.028C1.78547 218.15 1.82502 218.298 1.7883 218.357C1.57928 218.669 1.5595 219.434 1.76005 219.546C1.93236 219.643 1.92953 219.674 1.74311 219.679C1.61317 219.679 1.54538 219.746 1.59905 219.822C1.65272 219.899 1.71768 220.233 1.74593 220.567C1.77418 220.902 1.86174 221.175 1.94083 221.175C2.11596 221.175 2.14138 222.249 1.98602 222.977C1.92671 223.26 1.8222 223.464 1.75723 223.428C1.64707 223.367 1.63294 224.209 1.74028 224.579C1.7657 224.671 1.77418 224.881 1.7544 225.047C1.73746 225.212 1.8222 225.455 1.94365 225.585C2.11596 225.769 2.11313 225.822 1.94083 225.825C1.77135 225.825 1.74593 226.251 1.83067 227.527C1.90976 228.719 1.86739 229.477 1.69226 230.059C1.55385 230.516 1.48041 231.225 1.52843 231.636C1.65272 232.701 1.63012 233.995 1.48324 234.201C1.41545 234.298 1.33918 234.638 1.31941 234.959C1.29964 235.278 1.25162 235.932 1.21772 236.409C1.18383 236.886 1.2262 237.236 1.31376 237.187C1.40132 237.139 1.47194 237.172 1.47194 237.261C1.47194 237.351 1.37873 237.453 1.26574 237.489C1.11604 237.535 1.13016 237.657 1.31094 237.912C1.51148 238.196 1.51713 238.315 1.34201 238.476C1.03412 238.76 1.06519 239.112 1.3985 239.112C1.7431 239.112 1.7657 239.587 1.42675 239.706C1.22902 239.778 1.2149 239.951 1.35895 240.549C1.48324 241.059 1.48041 241.358 1.35048 241.478C1.24597 241.575 1.21207 241.878 1.27421 242.151C1.3646 242.539 1.33353 242.621 1.14428 242.516C0.966329 242.419 0.932433 242.458 1.01717 242.652C1.08214 242.8 1.05389 242.968 0.957855 243.022C0.847695 243.086 0.84487 243.226 0.952206 243.397C1.05107 243.555 1.05672 243.785 0.969154 243.941C0.799675 244.232 0.83922 244.913 1.03977 245.201C1.10756 245.298 1.12733 246 1.08214 246.758C1.02565 247.697 1.06802 248.175 1.21207 248.254C1.36743 248.338 1.3533 248.499 1.1584 248.856C1.0087 249.132 0.91831 249.681 0.952205 250.122C0.988926 250.635 0.935258 250.903 0.788377 250.913C0.666917 250.921 0.734709 250.99 0.938083 251.066L1.30529 251.207L0.938083 251.222C0.664093 251.235 0.633022 251.273 0.816623 251.378C1.12168 251.551 0.969154 252.669 0.587828 253.057C0.367506 253.282 0.364681 253.511 0.568055 254.56C0.822272 255.875 0.870291 258.345 0.64997 258.675C0.576529 258.784 0.613249 258.871 0.734708 258.871C0.895713 258.871 0.892888 258.935 0.72341 259.124C0.57088 259.292 0.531335 259.652 0.610424 260.208C0.675391 260.668 0.652794 261 0.56523 260.951C0.477666 260.903 0.364681 260.959 0.316662 261.074C0.265819 261.188 0.265819 261.395 0.316662 261.53C0.367506 261.666 0.452245 261.972 0.508737 262.207C0.562405 262.442 0.842045 262.758 1.12733 262.909C1.47194 263.089 1.71203 263.002 1.84762 262.648L1.85044 262.651ZM2.051 25.897C2.05947 25.703 2.10184 25.6648 2.16116 25.7975C2.21483 25.9174 2.20918 26.0603 2.14986 26.1165C2.09054 26.1726 2.04535 26.0731 2.051 25.8996V25.897ZM1.86175 50.6586C1.86175 50.5131 1.99168 50.3957 2.14986 50.3932C2.47469 50.3932 2.42103 50.7479 2.08207 50.8526C1.96343 50.8883 1.86457 50.8015 1.86175 50.6561V50.6586ZM1.99451 54.612C1.69509 54.418 1.68662 54.3798 1.93519 54.3772C2.22048 54.3772 2.55378 54.6605 2.41538 54.7856C2.38148 54.8187 2.18941 54.7396 1.99451 54.612ZM1.71204 60.8726C1.53409 60.7475 1.38721 60.6174 1.38721 60.5842C1.38721 60.4464 1.53691 60.5357 1.77983 60.8088C2.01145 61.0717 2.00298 61.0768 1.71204 60.8726ZM1.41263 68.3557C1.24033 68.2026 1.28835 68.1566 1.63013 68.1541C1.97191 68.1541 2.02275 68.1949 1.85327 68.3506C1.68379 68.5063 1.58493 68.5063 1.41263 68.3531V68.3557ZM1.91259 69.887C2.05947 69.7084 2.18376 69.6471 2.18658 69.7492C2.1894 69.8513 2.07077 70.0299 1.92106 70.1448C1.57363 70.4102 1.57081 70.303 1.91259 69.887ZM1.78831 80.688C1.78831 80.5502 1.8561 80.4379 1.93801 80.4379C2.02275 80.4379 2.09054 80.5502 2.09337 80.6855C2.09337 80.8233 2.02558 80.9356 1.94366 80.9356C1.85892 80.9356 1.79113 80.8258 1.78831 80.688ZM2.6131 80.9662C2.49164 80.859 2.36453 80.6038 2.32781 80.3996C2.26284 80.0346 2.26849 80.0346 2.53966 80.3537C2.88426 80.7595 2.94641 81.2623 2.6131 80.9662ZM1.00306 82.0203C0.90137 81.9641 0.819455 81.8901 0.819455 81.8544C0.819455 81.8186 0.90137 81.7446 1.00306 81.6859C1.10474 81.6298 1.18666 81.7038 1.18666 81.8518C1.18666 81.9998 1.10474 82.0739 1.00306 82.0177V82.0203ZM2.78258 83.6537C2.60463 83.2428 2.647 83.0539 2.89556 83.1254C3.16955 83.2045 3.32773 83.9114 3.07069 83.914C2.97183 83.914 2.84189 83.7966 2.77975 83.6537H2.78258ZM2.37018 84.1692C2.37018 84.0238 2.48317 83.9268 2.6244 83.9523C2.98313 84.0186 3.01137 84.3147 2.66394 84.3785C2.49729 84.4091 2.37301 84.3198 2.37018 84.1692ZM2.32781 86.6679C2.32781 86.5351 2.4069 86.382 2.50859 86.3259C2.61027 86.2697 2.69219 86.3769 2.69501 86.5632C2.69501 86.7521 2.61592 86.9052 2.51424 86.9052C2.41255 86.9052 2.33064 86.798 2.32781 86.6679ZM1.78266 87.5815C1.78266 87.4922 1.90694 87.4641 2.05665 87.5152C2.20918 87.5662 2.33346 87.6377 2.33346 87.6734C2.33346 87.7092 2.20918 87.7398 2.05947 87.7398C1.90694 87.7398 1.78266 87.6683 1.78266 87.5815ZM2.16398 89.3987C2.16398 89.0899 2.20918 89.044 2.38148 89.1971C2.55378 89.3502 2.55378 89.4396 2.3843 89.5952C2.21483 89.7509 2.16398 89.7075 2.16116 89.3987H2.16398ZM2.36736 91.8871C2.13574 91.5707 2.13574 91.4354 2.36171 91.3052C2.46622 91.244 2.54531 91.3997 2.54531 91.6676C2.54531 92.0301 2.50576 92.0785 2.36736 91.8871ZM3.46614 95.6593C3.19215 95.5776 3.03679 95.2025 3.27689 95.1999C3.37575 95.1999 3.50851 95.3173 3.57065 95.4602C3.64127 95.621 3.5989 95.6976 3.46614 95.6568V95.6593ZM0.746014 96.2948C0.746014 96.157 0.825103 96.0447 0.921141 96.0447C1.02 96.0447 1.0539 96.157 0.994582 96.2923C0.938089 96.4301 0.858999 96.5424 0.819455 96.5424C0.77991 96.5424 0.746014 96.4301 0.746014 96.2948ZM2.05665 99.1814C2.05665 99.0844 2.13856 99.0512 2.24025 99.1074C2.34193 99.1635 2.42385 99.2426 2.42667 99.2809C2.42667 99.3217 2.34476 99.3549 2.24307 99.3549C2.14138 99.3549 2.05947 99.2758 2.05665 99.1788V99.1814ZM2.98878 100.771C2.98878 100.731 3.07069 100.651 3.17238 100.595C3.27406 100.539 3.35598 100.57 3.35598 100.667C3.35598 100.764 3.27406 100.843 3.17238 100.843C3.07069 100.843 2.98878 100.812 2.98878 100.771ZM1.39286 106.167C1.3985 106.029 1.47194 105.769 1.55668 105.585L1.71204 105.253L1.72334 105.585C1.72899 105.769 1.65837 106.029 1.56233 106.167C1.40415 106.389 1.38721 106.389 1.39286 106.167ZM3.48309 117.108C3.48309 117.016 3.565 116.942 3.66669 116.94C3.76837 116.94 3.85029 117.014 3.85029 117.106C3.85029 117.197 3.76837 117.271 3.66669 117.274C3.565 117.274 3.48309 117.2 3.48309 117.108ZM3.16673 123.749C3.30796 123.547 3.34468 123.57 3.3475 123.872C3.35033 124.076 3.27124 124.247 3.16955 124.247C2.93793 124.247 2.93793 124.073 3.16673 123.749ZM4.16382 124.905C4.09886 124.767 3.93503 124.543 3.80227 124.405C3.64691 124.244 3.61584 124.068 3.72036 123.912C3.94068 123.586 4.03671 123.706 4.16947 124.489C4.23161 124.854 4.22879 125.04 4.16382 124.905ZM2.14138 133.55C2.14138 133.458 2.22612 133.384 2.33346 133.381C2.44079 133.381 2.47751 133.455 2.41537 133.547C2.35323 133.639 2.26567 133.713 2.2233 133.713C2.1781 133.713 2.14138 133.639 2.14138 133.547V133.55ZM4.20902 139.596C4.10733 139.54 4.02542 139.46 4.02259 139.42C4.02259 139.379 4.10451 139.346 4.20619 139.346C4.30788 139.346 4.38979 139.425 4.39262 139.519C4.39262 139.616 4.3107 139.649 4.20902 139.593V139.596ZM3.99434 141.262C3.9322 140.979 3.98305 140.841 4.1497 140.839C4.38697 140.839 4.41522 141.38 4.18924 141.589C4.13275 141.64 4.04519 141.495 3.99434 141.262ZM1.92106 152.722C1.92106 152.584 2.00015 152.472 2.09619 152.472C2.19505 152.472 2.22895 152.584 2.16963 152.719C2.11314 152.857 2.03405 152.969 1.9945 152.969C1.95496 152.969 1.92106 152.857 1.92106 152.722ZM3.78532 155.955C3.78532 156.052 3.70341 156.086 3.60172 156.029C3.50003 155.973 3.41812 155.894 3.41529 155.856C3.41529 155.815 3.49721 155.782 3.59889 155.782C3.70058 155.782 3.7825 155.861 3.78532 155.955ZM2.32781 155.858C2.33628 155.664 2.37865 155.626 2.43797 155.756C2.49164 155.876 2.48599 156.019 2.42667 156.075C2.36453 156.132 2.32216 156.032 2.32781 155.858ZM4.79937 156.134C4.85021 156.18 4.72875 156.356 4.52538 156.522C4.32483 156.69 4.1271 156.795 4.09038 156.759C3.98869 156.657 4.6892 156.037 4.79937 156.134ZM3.42377 156.614C3.42377 156.522 3.50851 156.448 3.61584 156.445C3.72318 156.445 3.7599 156.519 3.69776 156.611C3.63561 156.703 3.54805 156.777 3.50568 156.78C3.46049 156.78 3.42377 156.706 3.42377 156.614ZM2.33063 157.773C2.33063 157.676 2.41255 157.642 2.51423 157.699C2.61592 157.755 2.69784 157.834 2.70066 157.872C2.70066 157.913 2.61875 157.946 2.51706 157.946C2.41537 157.946 2.33346 157.867 2.33063 157.77V157.773ZM4.7231 157.676C4.7231 157.247 4.74852 157.224 4.92365 157.492C5.06771 157.711 5.06488 157.849 4.92365 157.982C4.77677 158.117 4.7231 158.033 4.7231 157.676ZM2.33628 158.528C2.33628 158.39 2.4182 158.278 2.51706 158.278C2.61875 158.278 2.70066 158.388 2.70348 158.526C2.70348 158.663 2.62157 158.776 2.52271 158.776C2.42102 158.776 2.33911 158.666 2.33628 158.528ZM3.44354 158.936C3.44354 158.845 3.52828 158.771 3.63561 158.768C3.74295 158.768 3.77967 158.842 3.71753 158.934C3.65539 159.026 3.56782 159.1 3.52545 159.102C3.48026 159.102 3.44354 159.028 3.44354 158.936ZM2.73738 163.007C2.63569 162.951 2.55378 162.877 2.55378 162.841C2.55378 162.806 2.63569 162.732 2.73738 162.673C2.83907 162.617 2.92098 162.691 2.92098 162.839C2.92098 162.987 2.83907 163.061 2.73738 163.007ZM2.2007 164.929C2.2007 164.842 2.26849 164.735 2.35323 164.687C2.43797 164.638 2.50576 164.71 2.50858 164.842C2.50858 164.975 2.44079 165.085 2.35605 165.085C2.27131 165.085 2.20352 165.016 2.2007 164.929ZM3.96327 176.927C3.97175 176.733 4.01412 176.695 4.07343 176.825C4.1271 176.945 4.12145 177.088 4.06213 177.144C4.00282 177.2 3.95762 177.101 3.96327 176.927ZM3.96892 179.421C3.96892 179.28 4.05084 179.209 4.15535 179.265C4.32483 179.359 4.24574 179.678 4.05366 179.678C4.00847 179.678 3.97175 179.563 3.97175 179.421H3.96892ZM4.01976 185.832C4.01976 185.745 4.10168 185.63 4.20054 185.571C4.30223 185.515 4.38414 185.584 4.38414 185.727C4.38414 185.87 4.30223 185.987 4.20337 185.987C4.10168 185.987 4.01976 185.918 4.01976 185.832ZM4.02259 186.495C4.02259 186.299 4.37849 186.087 4.51125 186.207C4.64401 186.324 4.41521 186.651 4.19772 186.651C4.10168 186.651 4.02541 186.582 4.02259 186.495ZM4.02824 187.159C4.02824 187.072 4.11015 186.957 4.20901 186.899C4.3107 186.842 4.39262 186.911 4.39262 187.054C4.39262 187.197 4.3107 187.315 4.21184 187.315C4.11015 187.315 4.02824 187.246 4.02824 187.159ZM4.32482 188.848C4.38697 188.407 4.35025 188.144 4.23161 188.144C4.12428 188.144 4.03671 187.996 4.03671 187.812C4.03389 187.363 4.32765 187.389 4.4943 187.85C4.66096 188.312 4.61576 188.973 4.39544 189.303C4.28528 189.466 4.26268 189.31 4.32765 188.846L4.32482 188.848ZM4.26551 191.962C4.25986 191.824 4.3333 191.6 4.42934 191.462C4.64401 191.158 4.64683 191.418 4.43216 191.878C4.33047 192.097 4.27116 192.125 4.26551 191.962ZM4.25986 200.219C4.1384 200.183 4.00847 199.935 3.97457 199.67C3.92938 199.32 3.9661 199.233 4.11298 199.361C4.41521 199.624 4.5282 200.295 4.25986 200.219ZM4.18077 205.165C4.07343 205.106 3.98587 204.856 3.98869 204.611L3.99434 204.164L4.27963 204.634C4.57339 205.116 4.5282 205.356 4.18077 205.167V205.165ZM3.63279 207.087C3.63279 207.005 3.75425 206.895 3.90678 206.842C4.07343 206.783 4.18359 206.842 4.18359 206.987C4.18359 207.122 4.06213 207.232 3.9096 207.232C3.75707 207.232 3.63279 207.168 3.63279 207.087ZM3.77402 210.006C3.9209 209.874 4.20901 210.022 4.20901 210.231C4.20901 210.318 4.08755 210.389 3.93502 210.389C3.64974 210.389 3.56782 210.195 3.77402 210.006ZM4.27398 218.436C4.17229 218.38 4.08755 218.265 4.08755 218.178C4.08755 218.092 4.16947 218.023 4.27116 218.02C4.37284 218.02 4.45476 218.135 4.45758 218.278C4.45758 218.421 4.37567 218.492 4.27398 218.436ZM3.81921 220.123C3.99717 220.059 4.05083 220.111 3.98304 220.271C3.92937 220.404 3.80791 220.514 3.71753 220.514C3.45201 220.514 3.52545 220.228 3.81639 220.123H3.81921ZM3.26558 230.641C3.26558 230.549 3.35032 230.475 3.45766 230.473C3.565 230.473 3.60172 230.547 3.53957 230.638C3.47743 230.73 3.38987 230.804 3.3475 230.807C3.3023 230.807 3.26558 230.733 3.26558 230.641ZM3.41247 231.782C3.7034 231.573 3.70905 231.58 3.48308 231.843C3.34467 232.004 3.20062 232.134 3.1639 232.137C3.01419 232.137 3.11023 232.001 3.41247 231.782ZM3.10176 233.132C3.10176 233.04 3.18649 232.966 3.29383 232.963C3.40117 232.963 3.43789 233.037 3.37574 233.129C3.3136 233.221 3.22604 233.295 3.18367 233.298C3.13848 233.298 3.10176 233.224 3.10176 233.132ZM3.49438 236.531C3.39269 236.475 3.31078 236.36 3.31078 236.276C3.31078 236.036 3.44071 236.09 3.565 236.376C3.62996 236.524 3.59889 236.59 3.49438 236.531ZM2.16115 254.052C2.16115 253.779 2.22612 253.555 2.30803 253.555C2.38995 253.555 2.46056 253.777 2.46339 254.052C2.46339 254.326 2.39842 254.55 2.31651 254.55C2.23459 254.55 2.16397 254.328 2.16115 254.052ZM2.35323 258.164C2.1668 258.108 2.1668 258.07 2.35323 257.965C2.59897 257.825 2.88426 257.965 2.69783 258.133C2.63851 258.187 2.48316 258.202 2.35605 258.167L2.35323 258.164Z" fill="white"/>
</svg>
