<svg width="23" height="23" viewBox="0 0 23 23" fill="none" xmlns="http://www.w3.org/2000/svg">
<path d="M8.74976 15.7533C8.10809 15.7533 7.56573 15.5318 7.12267 15.0887C6.67962 14.6457 6.45809 14.1033 6.45809 13.4616C6.45809 12.82 6.67962 12.2776 7.12267 11.8346C7.56573 11.3915 8.10809 11.17 8.74976 11.17C9.39142 11.17 9.93378 11.3915 10.3768 11.8346C10.8199 12.2776 11.0414 12.82 11.0414 13.4616C11.0414 14.1033 10.8199 14.6457 10.3768 15.0887C9.93378 15.5318 9.39142 15.7533 8.74976 15.7533ZM5.08309 20.795C4.57892 20.795 4.14733 20.6155 3.7883 20.2564C3.42927 19.8974 3.24976 19.4658 3.24976 18.9616V6.12831C3.24976 5.62414 3.42927 5.19254 3.7883 4.83351C4.14733 4.47449 4.57892 4.29497 5.08309 4.29497H5.99976V2.46164H7.83309V4.29497H15.1664V2.46164H16.9998V4.29497H17.9164C18.4206 4.29497 18.8522 4.47449 19.2112 4.83351C19.5702 5.19254 19.7498 5.62414 19.7498 6.12831V18.9616C19.7498 19.4658 19.5702 19.8974 19.2112 20.2564C18.8522 20.6155 18.4206 20.795 17.9164 20.795H5.08309ZM5.08309 18.9616H17.9164V9.79497H5.08309V18.9616Z" fill="#212D2D"/>
</svg>
