<svg width="23" height="23" viewBox="0 0 23 23" fill="none" xmlns="http://www.w3.org/2000/svg">
<path d="M20.6671 16.1384V18.8884C20.6681 19.1437 20.6158 19.3964 20.5135 19.6303C20.4112 19.8642 20.2612 20.0742 20.0731 20.2468C19.885 20.4194 19.6629 20.5508 19.4211 20.6325C19.1792 20.7143 18.923 20.7447 18.6687 20.7217C15.848 20.4152 13.1385 19.4514 10.7579 17.9076C8.54306 16.5002 6.66528 14.6224 5.25789 12.4076C3.7087 10.0162 2.74461 7.29347 2.44372 4.46006C2.42081 4.20657 2.45094 3.95109 2.53218 3.70988C2.61342 3.46868 2.74399 3.24703 2.91559 3.05905C3.08718 2.87107 3.29604 2.72088 3.52886 2.61804C3.76168 2.5152 4.01337 2.46197 4.26789 2.46173H7.01789C7.46275 2.45735 7.89403 2.61488 8.23133 2.90497C8.56864 3.19505 8.78896 3.59789 8.85122 4.03839C8.96729 4.91846 9.18255 5.78256 9.49289 6.61423C9.61622 6.94232 9.64291 7.2989 9.5698 7.6417C9.49669 7.9845 9.32684 8.29916 9.08039 8.54839L7.91622 9.71256C9.22115 12.0075 11.1213 13.9076 13.4162 15.2126L14.5804 14.0484C14.8296 13.8019 15.1443 13.6321 15.4871 13.559C15.8299 13.4859 16.1865 13.5126 16.5146 13.6359C17.3462 13.9462 18.2103 14.1615 19.0904 14.2776C19.5357 14.3404 19.9423 14.5647 20.233 14.9078C20.5237 15.2509 20.6782 15.6888 20.6671 16.1384Z" stroke="#212D2D" stroke-width="2" stroke-linecap="round" stroke-linejoin="round"/>
</svg>
