<svg width="23" height="23" viewBox="0 0 23 23" fill="none" xmlns="http://www.w3.org/2000/svg">
<g clip-path="url(#clip0_520_24)">
<path d="M21.1028 16.1384V18.8884C21.1039 19.1437 21.0516 19.3964 20.9493 19.6303C20.847 19.8642 20.697 20.0742 20.5089 20.2468C20.3208 20.4194 20.0987 20.5508 19.8569 20.6325C19.615 20.7143 19.3588 20.7447 19.1045 20.7217C16.2838 20.4152 13.5743 19.4514 11.1937 17.9076C8.97885 16.5002 7.10107 14.6224 5.69368 12.4076C4.14449 10.0162 3.1804 7.29347 2.87951 4.46006C2.8566 4.20657 2.88673 3.95109 2.96797 3.70988C3.04921 3.46868 3.17978 3.24703 3.35138 3.05905C3.52298 2.87107 3.73183 2.72088 3.96465 2.61804C4.19747 2.5152 4.44916 2.46197 4.70368 2.46173H7.45368C7.89854 2.45735 8.32982 2.61488 8.66713 2.90497C9.00443 3.19505 9.22475 3.59789 9.28701 4.03839C9.40308 4.91846 9.61834 5.78256 9.92868 6.61423C10.052 6.94232 10.0787 7.2989 10.0056 7.6417C9.93248 7.9845 9.76264 8.29916 9.51618 8.54839L8.35201 9.71256C9.65694 12.0075 11.5571 13.9076 13.852 15.2126L15.0162 14.0484C15.2654 13.8019 15.5801 13.6321 15.9229 13.559C16.2657 13.4859 16.6222 13.5126 16.9503 13.6359C17.782 13.9462 18.6461 14.1615 19.5262 14.2776C19.9715 14.3404 20.3781 14.5647 20.6688 14.9078C20.9595 15.2509 21.114 15.6888 21.1028 16.1384Z" stroke="#BEB3A1" stroke-width="2" stroke-linecap="round" stroke-linejoin="round"/>
</g>
<defs>
<clipPath id="clip0_520_24">
<rect width="22" height="22" fill="white" transform="translate(0.936035 0.628204)"/>
</clipPath>
</defs>
</svg>
