<svg width="13" height="12" viewBox="0 0 13 12" fill="none" xmlns="http://www.w3.org/2000/svg">
<mask id="mask0_1_543" style="mask-type:alpha" maskUnits="userSpaceOnUse" x="0" y="0" width="13" height="12">
<rect x="0.5" width="12" height="12" fill="#D9D9D9"/>
</mask>
<g mask="url(#mask0_1_543)">
<path d="M3.75 9.5C3.575 9.5 3.42708 9.43958 3.30625 9.31875C3.18542 9.19792 3.125 9.05 3.125 8.875C3.125 8.7 3.18542 8.55208 3.30625 8.43125C3.42708 8.31042 3.575 8.25 3.75 8.25C3.925 8.25 4.07292 8.31042 4.19375 8.43125C4.31458 8.55208 4.375 8.7 4.375 8.875C4.375 9.05 4.31458 9.19792 4.19375 9.31875C4.07292 9.43958 3.925 9.5 3.75 9.5ZM5.25 11C5.075 11 4.92708 10.9396 4.80625 10.8188C4.68542 10.6979 4.625 10.55 4.625 10.375C4.625 10.2 4.68542 10.0521 4.80625 9.93125C4.92708 9.81042 5.075 9.75 5.25 9.75C5.425 9.75 5.57292 9.81042 5.69375 9.93125C5.81458 10.0521 5.875 10.2 5.875 10.375C5.875 10.55 5.81458 10.6979 5.69375 10.8188C5.57292 10.9396 5.425 11 5.25 11ZM6.75 9.5C6.575 9.5 6.42708 9.43958 6.30625 9.31875C6.18542 9.19792 6.125 9.05 6.125 8.875C6.125 8.7 6.18542 8.55208 6.30625 8.43125C6.42708 8.31042 6.575 8.25 6.75 8.25C6.925 8.25 7.07292 8.31042 7.19375 8.43125C7.31458 8.55208 7.375 8.7 7.375 8.875C7.375 9.05 7.31458 9.19792 7.19375 9.31875C7.07292 9.43958 6.925 9.5 6.75 9.5ZM9.75 9.5C9.575 9.5 9.42708 9.43958 9.30625 9.31875C9.18542 9.19792 9.125 9.05 9.125 8.875C9.125 8.7 9.18542 8.55208 9.30625 8.43125C9.42708 8.31042 9.575 8.25 9.75 8.25C9.925 8.25 10.0729 8.31042 10.1938 8.43125C10.3146 8.55208 10.375 8.7 10.375 8.875C10.375 9.05 10.3146 9.19792 10.1938 9.31875C10.0729 9.43958 9.925 9.5 9.75 9.5ZM8.25 11C8.075 11 7.92708 10.9396 7.80625 10.8188C7.68542 10.6979 7.625 10.55 7.625 10.375C7.625 10.2 7.68542 10.0521 7.80625 9.93125C7.92708 9.81042 8.075 9.75 8.25 9.75C8.425 9.75 8.57292 9.81042 8.69375 9.93125C8.81458 10.0521 8.875 10.2 8.875 10.375C8.875 10.55 8.81458 10.6979 8.69375 10.8188C8.57292 10.9396 8.425 11 8.25 11ZM4.25 7.5C3.49167 7.5 2.84375 7.23125 2.30625 6.69375C1.76875 6.15625 1.5 5.50833 1.5 4.75C1.5 4.05833 1.72917 3.45417 2.1875 2.9375C2.64583 2.42083 3.2125 2.11667 3.8875 2.025C4.15417 1.55 4.51875 1.17708 4.98125 0.90625C5.44375 0.635417 5.95 0.5 6.5 0.5C7.25 0.5 7.90208 0.739583 8.45625 1.21875C9.01042 1.69792 9.34583 2.29583 9.4625 3.0125C10.0375 3.0625 10.5208 3.3 10.9125 3.725C11.3042 4.15 11.5 4.65833 11.5 5.25C11.5 5.875 11.2812 6.40625 10.8438 6.84375C10.4062 7.28125 9.875 7.5 9.25 7.5H4.25ZM4.25 6.5H9.25C9.6 6.5 9.89583 6.37917 10.1375 6.1375C10.3792 5.89583 10.5 5.6 10.5 5.25C10.5 4.9 10.3792 4.60417 10.1375 4.3625C9.89583 4.12083 9.6 4 9.25 4H8.5V3.5C8.5 2.95 8.30417 2.47917 7.9125 2.0875C7.52083 1.69583 7.05 1.5 6.5 1.5C6.1 1.5 5.73542 1.60833 5.40625 1.825C5.07708 2.04167 4.82917 2.33333 4.6625 2.7L4.5375 3H4.225C3.75 3.01667 3.34375 3.19375 3.00625 3.53125C2.66875 3.86875 2.5 4.275 2.5 4.75C2.5 5.23333 2.67083 5.64583 3.0125 5.9875C3.35417 6.32917 3.76667 6.5 4.25 6.5Z" fill="#F3F3F3"/>
</g>
</svg>
